<?xml version="1.0" encoding="utf-8"?>
<!-- Generator: Adobe Illustrator 27.5.0, SVG Export Plug-In . SVG Version: 6.00 Build 0)  -->
<svg version="1.1" xmlns="http://www.w3.org/2000/svg" xmlns:xlink="http://www.w3.org/1999/xlink" x="0px" y="0px"
	 viewBox="0 0 750 500" style="enable-background:new 0 0 750 500;" xml:space="preserve">
<g id="BACKGROUND">
	<g>
		<rect x="0" style="fill:#FFFFFF;" width="750" height="500"/>
	</g>
</g>
<g id="OBJECTS">
	<g>
		<g>
			<g>
				<path style="fill:#FFF9EB;" d="M700.625,310.761c0,112.185-115.301,148.767-311.073,148.767S29.078,429.036,29.078,316.851
					S178.081,68.163,373.853,68.163S700.625,198.576,700.625,310.761z"/>
			</g>
			<g>
				<g>
					<path style="fill:#F84558;" d="M662.329,220.14l-19.813-16.354l24.234-10.679L662.329,220.14z M646.557,204.346l14.26,11.77
						l3.182-19.456L646.557,204.346z"/>
				</g>
				<g>
					<path style="fill:#F84558;" d="M186.154,329.499l5.262-25.956l19.527,19.211L186.154,329.499z M192.731,307.84l-3.788,18.681
						l17.841-4.854L192.731,307.84z"/>
				</g>
				<g>
					<path style="fill:#F84558;" d="M279.404,124.344l-26.675-14.46l25.666-17.877L279.404,124.344z M257.541,109.615l19.199,10.406
						l-0.727-23.272L257.541,109.615z"/>
				</g>
				<g>
					<g>
						<path style="fill:#A39686;" d="M496.072,439.864c-2.569,0-4.816-0.037-6.869-0.113c-0.314-0.012-0.561-0.276-0.549-0.592
							c0.013-0.314,0.237-0.545,0.592-0.549c2.038,0.076,4.271,0.113,6.826,0.113c0.315,0,0.571,0.255,0.571,0.57
							S496.387,439.864,496.072,439.864z M502.921,439.806c-0.312,0-0.565-0.249-0.57-0.562c-0.005-0.315,0.246-0.574,0.562-0.579
							c2.606-0.041,4.778-0.097,6.835-0.178c0.008,0,0.016,0,0.022,0c0.306,0,0.559,0.24,0.57,0.548
							c0.013,0.315-0.233,0.58-0.548,0.593c-2.066,0.081-4.247,0.138-6.862,0.178C502.926,439.806,502.923,439.806,502.921,439.806z
							 M482.392,439.3c-0.019,0-0.038,0-0.058-0.002c-2.389-0.236-4.686-0.563-6.828-0.969c-0.31-0.059-0.513-0.357-0.454-0.667
							s0.355-0.515,0.667-0.454c2.109,0.399,4.373,0.721,6.729,0.953c0.313,0.031,0.542,0.311,0.512,0.625
							C482.93,439.08,482.682,439.3,482.392,439.3z M516.605,439.233c-0.294,0-0.544-0.228-0.568-0.526
							c-0.024-0.313,0.21-0.589,0.524-0.614c2.407-0.191,4.624-0.43,6.777-0.729c0.317-0.046,0.601,0.174,0.645,0.487
							c0.043,0.312-0.175,0.6-0.487,0.644c-2.176,0.303-4.414,0.544-6.845,0.737C516.636,439.232,516.621,439.233,516.605,439.233z
							 M530.16,437.304c-0.262,0-0.498-0.182-0.557-0.448c-0.067-0.309,0.127-0.612,0.435-0.681
							c2.292-0.504,4.496-1.103,6.552-1.778c0.303-0.101,0.622,0.064,0.721,0.363c0.099,0.3-0.064,0.622-0.363,0.721
							c-2.093,0.688-4.335,1.297-6.663,1.81C530.242,437.299,530.201,437.304,530.16,437.304z M468.969,436.692
							c-0.057,0-0.114-0.009-0.171-0.026c-1.252-0.393-2.487-0.831-3.672-1.303c-0.916-0.364-1.851-0.77-2.776-1.205
							c-0.286-0.134-0.408-0.474-0.274-0.759c0.134-0.286,0.477-0.409,0.759-0.274c0.906,0.425,1.819,0.821,2.715,1.178
							c1.157,0.462,2.365,0.89,3.591,1.273c0.301,0.095,0.468,0.415,0.374,0.716C469.438,436.535,469.213,436.692,468.969,436.692z
							 M543.13,432.989c-0.214,0-0.419-0.121-0.517-0.328c-0.134-0.285-0.012-0.625,0.273-0.76c2.072-0.978,4.057-2.089,5.896-3.305
							c0.264-0.173,0.617-0.101,0.791,0.162s0.101,0.617-0.162,0.791c-1.886,1.245-3.917,2.384-6.039,3.385
							C543.295,432.971,543.212,432.989,543.13,432.989z M456.589,430.925c-0.104,0-0.208-0.028-0.302-0.088
							c-1.877-1.175-3.728-2.465-5.66-3.943c-0.25-0.191-0.298-0.55-0.106-0.8c0.191-0.252,0.55-0.297,0.8-0.106
							c1.904,1.456,3.727,2.726,5.572,3.883c0.268,0.167,0.349,0.52,0.181,0.786C456.965,430.829,456.78,430.925,456.589,430.925z
							 M554.522,425.474c-0.158,0-0.315-0.064-0.428-0.192c-0.209-0.236-0.187-0.598,0.05-0.806
							c1.618-1.428,3.197-2.986,4.828-4.768c0.214-0.233,0.575-0.248,0.807-0.035c0.232,0.213,0.248,0.574,0.035,0.807
							c-1.659,1.811-3.267,3.397-4.914,4.852C554.792,425.427,554.657,425.474,554.522,425.474z M159.347,423.29
							c-0.313,0-0.568-0.252-0.571-0.565c-0.003-0.315,0.25-0.573,0.565-0.575c2.259-0.021,4.556-0.081,6.826-0.181
							c0.314-0.002,0.581,0.23,0.595,0.545c0.014,0.315-0.23,0.582-0.545,0.596c-2.283,0.1-4.593,0.161-6.866,0.181
							C159.351,423.29,159.349,423.29,159.347,423.29z M152.497,423.225c-0.006,0-0.012-0.001-0.017-0.001
							c-2.294-0.066-4.604-0.179-6.864-0.334c-0.314-0.021-0.552-0.294-0.53-0.608c0.021-0.314,0.292-0.562,0.608-0.53
							c2.245,0.153,4.54,0.266,6.819,0.332c0.315,0.009,0.563,0.271,0.554,0.587C153.058,422.98,152.804,423.225,152.497,423.225z
							 M173.029,422.697c-0.295,0-0.545-0.228-0.569-0.526c-0.024-0.314,0.211-0.589,0.526-0.613
							c2.239-0.172,4.527-0.385,6.801-0.632c0.312-0.03,0.596,0.191,0.629,0.506c0.034,0.313-0.192,0.595-0.505,0.629
							c-2.286,0.249-4.586,0.463-6.837,0.636C173.059,422.697,173.044,422.697,173.029,422.697z M445.685,422.662
							c-0.134,0-0.268-0.046-0.376-0.141c-1.55-1.355-3.21-2.872-5.073-4.637c-0.229-0.216-0.238-0.577-0.021-0.807
							c0.215-0.229,0.577-0.239,0.807-0.021c1.853,1.753,3.501,3.26,5.04,4.605c0.237,0.208,0.261,0.568,0.054,0.806
							C446.002,422.597,445.843,422.662,445.685,422.662z M138.834,422.29c-0.021,0-0.041-0.002-0.062-0.004
							c-2.287-0.248-4.58-0.543-6.816-0.878c-0.312-0.047-0.527-0.337-0.48-0.648s0.336-0.525,0.649-0.48
							c2.221,0.332,4.5,0.626,6.771,0.872c0.313,0.034,0.54,0.315,0.506,0.629C139.369,422.073,139.121,422.29,138.834,422.29z
							 M186.645,421.219c-0.28,0-0.525-0.207-0.565-0.492c-0.043-0.313,0.174-0.601,0.486-0.645c2.223-0.311,4.495-0.66,6.752-1.041
							c0.309-0.058,0.605,0.155,0.658,0.468c0.052,0.311-0.157,0.605-0.468,0.657c-2.268,0.383-4.551,0.735-6.784,1.047
							C186.697,421.217,186.671,421.219,186.645,421.219z M125.289,420.263c-0.036,0-0.072-0.004-0.108-0.011
							c-2.246-0.431-4.507-0.915-6.722-1.438c-0.307-0.072-0.497-0.38-0.424-0.687s0.377-0.493,0.687-0.425
							c2.199,0.52,4.444,1,6.674,1.428c0.31,0.06,0.513,0.358,0.453,0.668C125.797,420.073,125.557,420.263,125.289,420.263z
							 M200.151,418.944c-0.268,0-0.506-0.189-0.56-0.461c-0.061-0.31,0.141-0.609,0.45-0.67c2.201-0.434,4.451-0.906,6.689-1.404
							c0.307-0.071,0.613,0.125,0.681,0.433s-0.125,0.612-0.433,0.681c-2.247,0.502-4.507,0.976-6.716,1.411
							C200.224,418.94,200.187,418.944,200.151,418.944z M111.962,417.113c-0.052,0-0.104-0.008-0.156-0.022
							c-2.21-0.626-4.421-1.306-6.571-2.021c-0.299-0.1-0.461-0.423-0.361-0.722c0.1-0.3,0.421-0.46,0.722-0.362
							c2.134,0.71,4.328,1.385,6.522,2.007c0.303,0.086,0.479,0.401,0.394,0.704C112.439,416.949,112.21,417.113,111.962,417.113z
							 M213.52,415.964c-0.256,0-0.489-0.174-0.554-0.434c-0.076-0.306,0.111-0.616,0.417-0.691
							c2.145-0.533,4.371-1.112,6.617-1.722c0.301-0.084,0.617,0.097,0.7,0.401c0.083,0.304-0.097,0.617-0.401,0.7
							c-2.253,0.612-4.487,1.193-6.64,1.728C213.612,415.958,213.566,415.964,213.52,415.964z M563.822,415.442
							c-0.125,0-0.25-0.04-0.355-0.123c-0.246-0.196-0.287-0.556-0.092-0.803c1.231-1.549,2.546-3.275,4.138-5.434
							c0.186-0.254,0.543-0.308,0.798-0.12c0.254,0.187,0.308,0.544,0.12,0.798c-1.599,2.169-2.922,3.906-4.161,5.467
							C564.156,415.368,563.99,415.442,563.822,415.442z M435.696,413.287c-0.144,0-0.287-0.054-0.398-0.161l-0.48-0.468
							c-1.475-1.437-2.95-2.872-4.438-4.291c-0.229-0.218-0.237-0.579-0.02-0.807c0.218-0.229,0.579-0.237,0.807-0.02
							c1.49,1.422,2.969,2.86,4.446,4.299l0.481,0.468c0.226,0.22,0.23,0.581,0.011,0.808
							C435.993,413.23,435.844,413.287,435.696,413.287z M98.968,412.786c-0.068,0-0.138-0.013-0.206-0.039
							c-2.146-0.827-4.284-1.711-6.354-2.627c-0.288-0.128-0.418-0.465-0.291-0.753c0.127-0.289,0.464-0.423,0.753-0.291
							c2.054,0.908,4.175,1.785,6.304,2.606c0.294,0.113,0.44,0.443,0.327,0.737C99.414,412.647,99.197,412.786,98.968,412.786z
							 M226.738,412.37c-0.247,0-0.474-0.161-0.547-0.41c-0.089-0.303,0.084-0.62,0.386-0.709c2.145-0.631,4.346-1.303,6.54-1.995
							c0.302-0.097,0.621,0.073,0.716,0.372c0.095,0.301-0.072,0.621-0.373,0.716c-2.202,0.695-4.409,1.369-6.562,2.003
							C226.846,412.363,226.792,412.37,226.738,412.37z M239.802,408.25c-0.239,0-0.461-0.151-0.541-0.39
							c-0.101-0.299,0.061-0.622,0.359-0.723c2.162-0.726,4.317-1.47,6.466-2.229c0.299-0.104,0.624,0.051,0.729,0.348
							c0.105,0.297-0.051,0.623-0.348,0.729c-2.155,0.762-4.316,1.508-6.484,2.235C239.924,408.241,239.862,408.25,239.802,408.25z
							 M86.447,407.242c-0.086,0-0.174-0.021-0.256-0.062c-2.052-1.034-4.091-2.13-6.059-3.256
							c-0.274-0.156-0.369-0.505-0.212-0.778c0.157-0.273,0.505-0.369,0.779-0.212c1.951,1.115,3.971,2.201,6.006,3.227
							c0.282,0.142,0.395,0.485,0.253,0.767C86.857,407.126,86.655,407.242,86.447,407.242z M572.014,404.461
							c-0.117,0-0.235-0.035-0.338-0.11c-0.254-0.186-0.309-0.543-0.122-0.798c0.674-0.919,1.35-1.835,2.029-2.742
							c0.69-0.921,1.388-1.836,2.093-2.745c0.194-0.251,0.555-0.294,0.801-0.102c0.249,0.193,0.295,0.552,0.102,0.801
							c-0.701,0.905-1.395,1.814-2.081,2.73c-0.678,0.904-1.352,1.816-2.023,2.733C572.363,404.381,572.189,404.461,572.014,404.461
							z M425.744,403.874c-0.135,0-0.271-0.047-0.379-0.144c-0.752-0.668-1.51-1.327-2.273-1.976
							c-0.963-0.816-1.953-1.626-2.944-2.408c-0.247-0.195-0.29-0.555-0.095-0.802c0.197-0.248,0.557-0.288,0.802-0.095
							c1.001,0.79,2.003,1.609,2.976,2.434c0.771,0.654,1.535,1.319,2.293,1.993c0.236,0.21,0.257,0.57,0.048,0.806
							C426.057,403.81,425.901,403.874,425.744,403.874z M252.717,403.683c-0.232,0-0.45-0.143-0.535-0.373
							c-0.11-0.295,0.041-0.624,0.336-0.733c2.14-0.794,4.272-1.603,6.398-2.424c0.292-0.114,0.624,0.031,0.738,0.326
							c0.114,0.294-0.032,0.625-0.327,0.738c-2.13,0.823-4.268,1.634-6.412,2.43C252.85,403.671,252.783,403.683,252.717,403.683z
							 M74.566,400.443c-0.106,0-0.214-0.03-0.31-0.092c-1.932-1.25-3.84-2.561-5.671-3.896c-0.254-0.186-0.311-0.543-0.125-0.797
							c0.185-0.254,0.542-0.311,0.797-0.125c1.813,1.322,3.704,2.621,5.618,3.859c0.265,0.172,0.34,0.524,0.169,0.789
							C74.936,400.35,74.753,400.443,74.566,400.443z M265.494,398.745c-0.226,0-0.44-0.136-0.53-0.359
							c-0.117-0.292,0.025-0.625,0.317-0.742c2.115-0.847,4.23-1.706,6.345-2.568c0.292-0.123,0.625,0.021,0.744,0.313
							c0.119,0.292-0.021,0.625-0.313,0.744c-2.118,0.864-4.234,1.724-6.352,2.572C265.636,398.732,265.565,398.745,265.494,398.745
							z M414.993,395.4c-0.111,0-0.225-0.033-0.324-0.103c-1.851-1.282-3.773-2.529-5.717-3.706
							c-0.27-0.163-0.355-0.515-0.192-0.784c0.164-0.271,0.516-0.354,0.784-0.192c1.963,1.188,3.906,2.448,5.775,3.745
							c0.259,0.18,0.323,0.535,0.144,0.794C415.352,395.314,415.174,395.4,414.993,395.4z M580.408,393.64
							c-0.128,0-0.257-0.043-0.363-0.132c-0.243-0.2-0.277-0.561-0.076-0.803c1.456-1.762,2.956-3.519,4.459-5.223
							c0.208-0.236,0.568-0.258,0.806-0.05c0.236,0.208,0.259,0.569,0.05,0.806c-1.494,1.694-2.986,3.441-4.436,5.193
							C580.735,393.569,580.572,393.64,580.408,393.64z M278.181,393.581c-0.225,0-0.438-0.134-0.528-0.355
							c-0.119-0.292,0.021-0.625,0.313-0.744c2.114-0.863,4.23-1.726,6.35-2.578c0.292-0.119,0.625,0.023,0.742,0.316
							c0.118,0.292-0.024,0.625-0.316,0.742c-2.118,0.853-4.232,1.713-6.344,2.576C278.326,393.568,278.254,393.581,278.181,393.581
							z M63.507,392.37c-0.127,0-0.256-0.042-0.362-0.13c-1.769-1.455-3.512-2.979-5.182-4.528c-0.231-0.214-0.245-0.575-0.03-0.807
							c0.214-0.23,0.576-0.244,0.807-0.029c1.653,1.533,3.379,3.042,5.131,4.483c0.243,0.2,0.278,0.56,0.078,0.803
							C63.836,392.3,63.673,392.37,63.507,392.37z M290.897,388.483c-0.229,0-0.444-0.139-0.532-0.364
							c-0.114-0.294,0.031-0.625,0.325-0.739c2.133-0.829,4.271-1.643,6.414-2.434c0.295-0.111,0.623,0.041,0.733,0.338
							c0.109,0.295-0.042,0.624-0.338,0.732c-2.138,0.789-4.269,1.601-6.396,2.428C291.036,388.47,290.966,388.483,290.897,388.483z
							 M403.286,388.304c-0.089,0-0.18-0.021-0.265-0.066c-2.005-1.054-4.064-2.06-6.123-2.99c-0.287-0.13-0.415-0.469-0.285-0.756
							c0.132-0.288,0.472-0.412,0.756-0.285c2.079,0.94,4.159,1.957,6.184,3.021c0.279,0.146,0.387,0.491,0.239,0.771
							C403.69,388.193,403.492,388.304,403.286,388.304z M303.755,383.754c-0.237,0-0.459-0.149-0.54-0.387
							c-0.102-0.298,0.057-0.622,0.355-0.725c2.222-0.761,4.419-1.477,6.529-2.129c0.302-0.093,0.621,0.075,0.714,0.376
							c0.093,0.302-0.076,0.621-0.377,0.714c-2.099,0.649-4.285,1.362-6.497,2.119C303.879,383.743,303.816,383.754,303.755,383.754
							z M589.465,383.364c-0.141,0-0.28-0.051-0.391-0.154c-0.229-0.216-0.241-0.577-0.025-0.807
							c1.56-1.661,3.167-3.319,4.778-4.931c0.223-0.223,0.584-0.223,0.807,0c0.224,0.223,0.224,0.584,0,0.807
							c-1.603,1.604-3.202,3.253-4.753,4.905C589.769,383.304,589.618,383.364,589.465,383.364z M53.486,383.041
							c-0.152,0-0.304-0.061-0.417-0.18c-1.637-1.747-3.149-3.509-4.493-5.237c-0.193-0.249-0.148-0.607,0.101-0.801
							c0.249-0.193,0.607-0.149,0.801,0.1c1.322,1.701,2.811,3.437,4.424,5.157c0.215,0.23,0.204,0.592-0.026,0.807
							C53.766,382.991,53.626,383.041,53.486,383.041z M390.812,382.663c-0.068,0-0.137-0.013-0.204-0.038
							c-2.103-0.806-4.268-1.563-6.434-2.249c-0.301-0.095-0.468-0.416-0.372-0.716c0.095-0.302,0.417-0.471,0.716-0.372
							c2.188,0.692,4.374,1.457,6.498,2.271c0.295,0.113,0.441,0.443,0.329,0.737C391.258,382.524,391.042,382.663,390.812,382.663z
							 M316.846,379.723c-0.251,0-0.482-0.168-0.551-0.423c-0.082-0.305,0.098-0.617,0.403-0.699
							c2.249-0.606,4.494-1.161,6.672-1.649c0.312-0.072,0.613,0.124,0.682,0.432s-0.125,0.613-0.432,0.682
							c-2.164,0.485-4.393,1.036-6.625,1.638C316.945,379.716,316.895,379.723,316.846,379.723z M377.761,378.528
							c-0.046,0-0.093-0.006-0.14-0.018c-2.206-0.558-4.444-1.054-6.654-1.476c-0.31-0.059-0.513-0.357-0.454-0.667
							c0.059-0.311,0.354-0.515,0.667-0.454c2.231,0.426,4.492,0.927,6.719,1.489c0.306,0.077,0.491,0.388,0.414,0.693
							C378.25,378.355,378.017,378.528,377.761,378.528z M330.211,376.746c-0.273,0-0.514-0.196-0.562-0.475
							c-0.054-0.311,0.155-0.605,0.465-0.659c2.281-0.394,4.571-0.726,6.806-0.986c0.314-0.024,0.597,0.188,0.633,0.501
							c0.037,0.313-0.188,0.597-0.501,0.634c-2.214,0.258-4.483,0.586-6.744,0.977C330.276,376.743,330.243,376.746,330.211,376.746
							z M364.314,375.962c-0.024,0-0.049-0.002-0.074-0.005c-2.252-0.293-4.534-0.52-6.781-0.675
							c-0.315-0.021-0.552-0.294-0.53-0.608c0.021-0.315,0.289-0.56,0.608-0.53c2.271,0.156,4.575,0.386,6.849,0.681
							c0.313,0.041,0.533,0.327,0.493,0.64C364.842,375.752,364.596,375.962,364.314,375.962z M343.809,375.179
							c-0.301,0-0.553-0.235-0.569-0.539c-0.017-0.315,0.224-0.584,0.539-0.602c1.985-0.107,4.007-0.162,6.008-0.162l0.873,0.003
							c0.315,0.002,0.569,0.259,0.567,0.574c-0.002,0.313-0.257,0.566-0.571,0.566c-0.001,0-0.002,0-0.004,0l-0.865-0.003
							c-1.98,0-3.981,0.055-5.946,0.162C343.83,375.179,343.819,375.179,343.809,375.179z M599.15,373.682
							c-0.152,0-0.304-0.06-0.416-0.18c-0.216-0.229-0.204-0.591,0.025-0.807c1.656-1.556,3.365-3.109,5.08-4.62
							c0.235-0.208,0.596-0.185,0.806,0.052c0.208,0.236,0.186,0.597-0.052,0.806c-1.705,1.502-3.405,3.048-5.053,4.595
							C599.43,373.631,599.291,373.682,599.15,373.682z M688.712,373.483c-0.137,0-0.273-0.002-0.409-0.006
							c-0.315-0.009-0.563-0.272-0.554-0.587c0.01-0.315,0.291-0.553,0.587-0.554c1.784,0.055,3.478-0.281,5.018-0.994
							c0.406-0.188,0.804-0.404,1.182-0.645c0.27-0.168,0.62-0.088,0.788,0.177c0.168,0.267,0.089,0.619-0.177,0.788
							c-0.421,0.266-0.862,0.507-1.313,0.715C692.25,373.112,690.527,373.483,688.712,373.483z M45.142,372.211
							c-0.194,0-0.383-0.099-0.49-0.277c-1.229-2.045-2.284-4.123-3.133-6.179c-0.121-0.291,0.018-0.625,0.309-0.745
							c0.293-0.119,0.626,0.019,0.746,0.31c0.828,2.002,1.857,4.03,3.057,6.026c0.162,0.27,0.075,0.621-0.195,0.783
							C45.343,372.185,45.242,372.211,45.142,372.211z M681.777,371.66c-0.091,0-0.183-0.021-0.268-0.067
							c-2.08-1.105-3.961-2.646-5.44-4.454c-0.2-0.244-0.164-0.604,0.08-0.803c0.241-0.198,0.604-0.164,0.803,0.08
							c1.385,1.691,3.146,3.134,5.094,4.169c0.277,0.148,0.384,0.493,0.235,0.771C682.178,371.55,681.981,371.66,681.777,371.66z
							 M699.272,366.648c-0.083,0-0.168-0.019-0.247-0.057c-0.284-0.137-0.404-0.478-0.268-0.762
							c0.922-1.916,1.435-4.125,1.481-6.387c0.006-0.315,0.253-0.566,0.582-0.559c0.315,0.006,0.565,0.267,0.559,0.582
							c-0.05,2.424-0.601,4.796-1.593,6.857C699.688,366.529,699.484,366.648,699.272,366.648z M609.426,364.626
							c-0.164,0-0.327-0.07-0.439-0.207c-0.201-0.242-0.167-0.603,0.076-0.803c1.761-1.456,3.564-2.9,5.361-4.292
							c0.25-0.195,0.607-0.149,0.801,0.102c0.193,0.249,0.147,0.607-0.102,0.801c-1.787,1.385-3.582,2.82-5.334,4.269
							C609.683,364.584,609.555,364.626,609.426,364.626z M673.26,361.36c-0.236,0-0.458-0.148-0.539-0.385
							c-0.719-2.071-1.188-4.37-1.397-6.832c-0.027-0.313,0.206-0.59,0.521-0.616c0.297-0.031,0.59,0.206,0.616,0.52
							c0.201,2.367,0.652,4.572,1.339,6.556c0.104,0.298-0.055,0.623-0.353,0.726C673.385,361.349,673.322,361.36,673.26,361.36z
							 M39.993,359.585c-0.264,0-0.501-0.185-0.558-0.452c-0.473-2.224-0.712-4.514-0.712-6.808v-0.113
							c0-0.315,0.255-0.57,0.571-0.57s0.571,0.255,0.571,0.57v0.113c0,2.214,0.231,4.425,0.687,6.569
							c0.066,0.309-0.131,0.612-0.439,0.678C40.072,359.58,40.032,359.585,39.993,359.585z M64.627,356.972
							c-0.306,0-0.56-0.242-0.57-0.551c-0.011-0.315,0.236-0.579,0.551-0.59c2.074-0.069,4.151-0.835,6.006-2.212
							c0.252-0.188,0.611-0.136,0.798,0.117c0.188,0.254,0.135,0.611-0.118,0.799c-2.042,1.517-4.341,2.359-6.648,2.437
							C64.64,356.972,64.633,356.972,64.627,356.972z M620.264,356.254c-0.179,0-0.354-0.084-0.466-0.24
							c-0.183-0.257-0.123-0.613,0.134-0.796c1.895-1.35,3.811-2.646,5.695-3.854c0.263-0.171,0.617-0.093,0.788,0.172
							c0.17,0.266,0.093,0.619-0.172,0.789c-1.869,1.198-3.77,2.484-5.649,3.823C620.494,356.219,620.379,356.254,620.264,356.254z
							 M58.144,355.108c-0.104,0-0.21-0.029-0.305-0.089c-1.888-1.193-3.546-2.885-4.929-5.027c-0.171-0.265-0.095-0.618,0.17-0.789
							c0.266-0.171,0.619-0.094,0.789,0.17c1.292,2.002,2.833,3.577,4.58,4.682c0.266,0.168,0.346,0.521,0.177,0.787
							C58.519,355.013,58.334,355.108,58.144,355.108z M699.553,353.345c-0.221,0-0.432-0.13-0.524-0.346
							c-0.069-0.161-0.14-0.319-0.214-0.478c-0.847-1.796-2.012-3.486-3.462-5.023c-0.217-0.229-0.206-0.59,0.023-0.807
							s0.59-0.206,0.807,0.023c1.533,1.624,2.767,3.415,3.666,5.322c0.079,0.17,0.155,0.34,0.229,0.511
							c0.124,0.29-0.01,0.626-0.299,0.75C699.705,353.329,699.629,353.345,699.553,353.345z M75.351,349.467
							c-0.091,0-0.184-0.022-0.269-0.068c-0.278-0.148-0.382-0.495-0.233-0.772c1.067-1.99,1.705-4.166,1.844-6.294
							c0.021-0.314,0.294-0.562,0.606-0.532c0.314,0.021,0.553,0.292,0.532,0.606c-0.149,2.289-0.833,4.627-1.977,6.759
							C75.751,349.358,75.554,349.467,75.351,349.467z M631.8,348.875c-0.199,0-0.393-0.104-0.498-0.29
							c-0.155-0.274-0.059-0.623,0.216-0.778c2.037-1.152,4.087-2.23,6.094-3.205c0.283-0.137,0.625-0.019,0.763,0.265
							s0.02,0.625-0.265,0.763c-1.984,0.964-4.014,2.03-6.029,3.172C631.992,348.851,631.895,348.875,631.8,348.875z
							 M671.933,347.826c-0.017,0-0.033-0.001-0.049-0.003c-0.314-0.026-0.548-0.303-0.521-0.616
							c0.073-0.864,0.173-1.763,0.297-2.67c0.188-1.377,0.423-2.778,0.7-4.165c0.061-0.309,0.369-0.51,0.671-0.447
							c0.31,0.062,0.51,0.362,0.448,0.671c-0.272,1.363-0.504,2.741-0.688,4.096c-0.121,0.888-0.219,1.767-0.291,2.611
							C672.475,347.601,672.226,347.826,671.933,347.826z M40.056,345.992c-0.042,0-0.084-0.005-0.127-0.015
							c-0.307-0.069-0.5-0.376-0.43-0.683c0.53-2.337,1.323-4.545,2.356-6.564c0.144-0.28,0.487-0.394,0.769-0.248
							c0.28,0.144,0.392,0.487,0.248,0.768c-0.991,1.936-1.751,4.054-2.26,6.297C40.552,345.812,40.317,345.992,40.056,345.992z
							 M50.625,344.013c-0.249,0-0.478-0.165-0.549-0.416c-0.438-1.551-0.735-3.146-0.885-4.738
							c-0.067-0.721-0.113-1.44-0.137-2.158c-0.011-0.314,0.236-0.578,0.551-0.589c0.318,0.01,0.579,0.236,0.589,0.552
							c0.023,0.694,0.067,1.391,0.133,2.089c0.144,1.524,0.428,3.05,0.847,4.534c0.085,0.304-0.091,0.619-0.395,0.704
							C50.729,344.005,50.676,344.013,50.625,344.013z M690.433,343.414c-0.101,0-0.203-0.027-0.296-0.084
							c-1.84-1.121-3.885-2.089-6.077-2.878c-0.297-0.106-0.45-0.434-0.344-0.73s0.436-0.448,0.73-0.344
							c2.265,0.815,4.379,1.816,6.284,2.978c0.27,0.164,0.354,0.515,0.19,0.784C690.814,343.317,690.627,343.414,690.433,343.414z
							 M644.127,342.916c-0.227,0-0.441-0.137-0.53-0.36c-0.116-0.293,0.026-0.625,0.319-0.741c2.18-0.868,4.369-1.637,6.507-2.284
							c0.305-0.092,0.621,0.079,0.712,0.38c0.092,0.302-0.078,0.621-0.38,0.712c-2.107,0.64-4.267,1.397-6.417,2.253
							C644.268,342.903,644.197,342.916,644.127,342.916z M657.228,338.983c-0.267,0-0.505-0.188-0.559-0.461
							c-0.062-0.309,0.14-0.609,0.449-0.67c2.305-0.456,4.607-0.779,6.844-0.961c0.312-0.02,0.59,0.209,0.615,0.523
							s-0.209,0.589-0.523,0.615c-2.193,0.178-4.452,0.494-6.715,0.941C657.302,338.979,657.265,338.983,657.228,338.983z
							 M677.648,338.709c-0.036,0-0.071-0.004-0.107-0.011c-2.188-0.416-4.448-0.682-6.718-0.79
							c-0.314-0.016-0.558-0.282-0.543-0.598c0.016-0.315,0.299-0.537,0.598-0.543c2.322,0.111,4.636,0.384,6.876,0.81
							c0.31,0.059,0.513,0.357,0.454,0.667C678.156,338.518,677.917,338.709,677.648,338.709z M75.937,336.31
							c-0.206,0-0.405-0.112-0.507-0.308c-0.06-0.115-0.122-0.229-0.187-0.343c-1.016-1.78-2.411-3.301-4.147-4.52
							c-0.258-0.181-0.321-0.536-0.14-0.795c0.182-0.258,0.538-0.321,0.795-0.139c1.875,1.315,3.384,2.96,4.482,4.886
							c0.072,0.126,0.142,0.254,0.209,0.383c0.146,0.28,0.037,0.625-0.243,0.771C76.116,336.288,76.026,336.31,75.937,336.31z
							 M674.572,334.415c-0.054,0-0.108-0.008-0.162-0.024c-0.303-0.089-0.475-0.407-0.385-0.709
							c0.629-2.12,1.375-4.313,2.218-6.521c0.112-0.294,0.44-0.441,0.737-0.329c0.294,0.112,0.441,0.442,0.329,0.737
							c-0.833,2.179-1.569,4.345-2.19,6.437C675.046,334.254,674.818,334.415,674.572,334.415z M46.309,333.994
							c-0.143,0-0.286-0.053-0.396-0.159c-0.227-0.219-0.233-0.58-0.014-0.808c0.673-0.698,1.397-1.355,2.151-1.953
							c0.463-0.368,0.95-0.715,1.456-1.04c-0.027-0.082-0.035-0.172-0.021-0.264c0.351-2.241,0.911-4.508,1.666-6.735
							c0.101-0.298,0.426-0.458,0.724-0.357c0.299,0.102,0.458,0.426,0.357,0.725c-0.664,1.958-1.172,3.946-1.516,5.919
							c0.278-0.149,0.561-0.293,0.848-0.431c0.284-0.133,0.626-0.015,0.761,0.27c0.136,0.285,0.015,0.626-0.27,0.761
							c-1.191,0.569-2.3,1.258-3.296,2.048c-0.715,0.566-1.401,1.189-2.04,1.852C46.608,333.937,46.459,333.994,46.309,333.994z
							 M65.184,328.529c-0.042,0-0.084-0.005-0.127-0.015c-2.124-0.483-4.396-0.61-6.621-0.374c-0.32,0.027-0.595-0.193-0.628-0.507
							c-0.034-0.313,0.193-0.595,0.507-0.628c2.351-0.251,4.75-0.115,6.995,0.396c0.308,0.07,0.5,0.376,0.43,0.684
							C65.68,328.349,65.444,328.529,65.184,328.529z M679.426,321.625c-0.079,0-0.159-0.017-0.236-0.052
							c-0.287-0.131-0.414-0.469-0.283-0.756c0.906-1.992,1.887-4.016,2.999-6.185c0.143-0.28,0.483-0.394,0.769-0.247
							c0.28,0.144,0.391,0.487,0.247,0.769c-1.104,2.152-2.077,4.159-2.976,6.136C679.85,321.5,679.643,321.625,679.426,321.625z
							 M54.384,317.498c-0.089,0-0.179-0.021-0.263-0.064c-0.28-0.146-0.389-0.49-0.243-0.77c1.042-2.008,2.257-3.996,3.61-5.908
							c0.181-0.257,0.538-0.32,0.795-0.137c0.257,0.182,0.318,0.538,0.136,0.795c-1.322,1.871-2.51,3.813-3.529,5.775
							C54.789,317.386,54.59,317.498,54.384,317.498z M685.642,309.424c-0.094,0-0.188-0.023-0.276-0.072
							c-0.276-0.152-0.376-0.5-0.223-0.775c1.104-1.995,2.238-3.982,3.385-5.966c0.157-0.273,0.508-0.365,0.779-0.209
							c0.273,0.157,0.367,0.507,0.209,0.779c-1.143,1.978-2.272,3.959-3.375,5.948C686.038,309.318,685.842,309.424,685.642,309.424
							z M62.25,306.325c-0.138,0-0.275-0.049-0.385-0.148c-0.233-0.213-0.25-0.574-0.037-0.807c1.54-1.688,3.208-3.31,4.956-4.82
							c0.239-0.208,0.599-0.181,0.805,0.059c0.207,0.238,0.18,0.599-0.058,0.805c-1.714,1.482-3.35,3.072-4.86,4.727
							C62.559,306.262,62.405,306.325,62.25,306.325z M692.472,297.549c-0.098,0-0.196-0.025-0.287-0.078
							c-0.272-0.159-0.363-0.509-0.204-0.781c1.152-1.971,2.304-3.941,3.439-5.92c0.156-0.272,0.502-0.37,0.779-0.211
							c0.273,0.157,0.368,0.506,0.211,0.779c-1.138,1.98-2.291,3.955-3.444,5.928C692.86,297.448,692.669,297.549,692.472,297.549z
							 M72.59,297.386c-0.18,0-0.357-0.085-0.468-0.244c-0.181-0.259-0.118-0.614,0.141-0.795l0.251-0.17
							c1.783-1.196,3.684-2.349,5.649-3.423c0.276-0.15,0.623-0.05,0.775,0.228c0.151,0.276,0.049,0.623-0.227,0.774
							c-1.936,1.058-3.807,2.191-5.563,3.369l-0.231,0.157C72.817,297.352,72.703,297.386,72.59,297.386z M84.578,290.799
							c-0.219,0-0.428-0.127-0.522-0.34c-0.128-0.288,0.002-0.625,0.29-0.753c2.021-0.897,4.172-1.762,6.391-2.567
							c0.296-0.108,0.624,0.045,0.731,0.341c0.107,0.297-0.045,0.624-0.342,0.731c-2.194,0.798-4.319,1.651-6.317,2.538
							C84.734,290.783,84.655,290.799,84.578,290.799z M97.434,286.097c-0.245,0-0.472-0.16-0.546-0.407
							c-0.091-0.302,0.08-0.62,0.382-0.711c2.09-0.628,4.319-1.244,6.626-1.83c0.306-0.08,0.616,0.105,0.694,0.412
							c0.078,0.306-0.107,0.616-0.413,0.693c-2.291,0.583-4.504,1.194-6.578,1.818C97.544,286.089,97.488,286.097,97.434,286.097z
							 M699.274,285.653c-0.093,0-0.187-0.023-0.273-0.07c-0.277-0.151-0.379-0.498-0.228-0.774
							c1.178-2.155,2.218-4.133,3.179-6.047c0.141-0.283,0.485-0.397,0.766-0.254c0.282,0.141,0.396,0.484,0.254,0.766
							c-0.966,1.926-2.012,3.916-3.196,6.082C699.672,285.545,699.475,285.653,699.274,285.653z M110.702,282.697
							c-0.262,0-0.498-0.182-0.557-0.448c-0.068-0.308,0.126-0.612,0.434-0.681c2.027-0.447,4.224-0.907,6.715-1.406
							c0.311-0.066,0.61,0.138,0.672,0.447c0.062,0.31-0.139,0.61-0.448,0.672c-2.484,0.497-4.673,0.956-6.693,1.402
							C110.784,282.692,110.743,282.697,110.702,282.697z M124.124,279.955c-0.264,0-0.501-0.185-0.558-0.453
							c-0.065-0.308,0.131-0.611,0.439-0.677c2.679-0.568,4.703-1.097,6.563-1.713c0.299-0.098,0.623,0.063,0.722,0.362
							c0.099,0.3-0.063,0.622-0.362,0.722c-1.876,0.621-4,1.176-6.685,1.746C124.203,279.951,124.163,279.955,124.124,279.955z
							 M136.978,275.417c-0.192,0-0.38-0.098-0.488-0.274c-0.164-0.269-0.079-0.62,0.19-0.784c0.561-0.342,1.104-0.706,1.615-1.081
							c1.241-0.912,2.417-1.984,3.494-3.186c0.209-0.235,0.572-0.254,0.806-0.044c0.235,0.21,0.254,0.571,0.044,0.806
							c-1.129,1.26-2.363,2.385-3.668,3.344c-0.537,0.395-1.107,0.776-1.696,1.136C137.182,275.39,137.079,275.417,136.978,275.417z
							 M705.39,273.397c-0.077,0-0.155-0.016-0.23-0.049c-0.289-0.128-0.419-0.465-0.292-0.753c0.949-2.146,1.81-4.27,2.559-6.312
							c0.108-0.297,0.438-0.447,0.732-0.34c0.296,0.108,0.448,0.437,0.34,0.732c-0.758,2.065-1.628,4.212-2.586,6.38
							C705.818,273.27,705.609,273.397,705.39,273.397z M146.131,265.444c-0.093,0-0.188-0.023-0.276-0.072
							c-0.276-0.152-0.375-0.499-0.223-0.775c1.002-1.813,1.921-3.825,2.81-6.152c0.113-0.294,0.441-0.441,0.737-0.33
							c0.294,0.112,0.442,0.442,0.33,0.737c-0.907,2.378-1.848,4.438-2.877,6.298C146.527,265.337,146.332,265.444,146.131,265.444z
							 M710.075,260.542c-0.051,0-0.103-0.007-0.154-0.021c-0.304-0.085-0.48-0.4-0.396-0.704c0.581-2.072,1.071-4.151,1.456-6.18
							l0.082-0.436c0.058-0.31,0.354-0.515,0.666-0.456c0.31,0.058,0.514,0.356,0.456,0.666l-0.083,0.438
							c-0.391,2.062-0.888,4.173-1.478,6.277C710.553,260.377,710.325,260.542,710.075,260.542z M151.149,252.723
							c-0.054,0-0.109-0.008-0.165-0.024c-0.302-0.09-0.473-0.409-0.382-0.71c0.229-0.765,0.453-1.528,0.672-2.287
							c0.412-1.427,0.819-2.855,1.223-4.285c0.085-0.304,0.401-0.481,0.705-0.394c0.303,0.085,0.479,0.401,0.394,0.705
							c-0.404,1.431-0.812,2.861-1.225,4.291c-0.22,0.763-0.444,1.53-0.676,2.299C151.621,252.564,151.395,252.723,151.149,252.723z
							 M712.541,247.092c-0.018,0-0.034,0-0.052-0.002c-0.314-0.028-0.546-0.305-0.518-0.619c0.196-2.195,0.305-4.481,0.324-6.793
							c0.002-0.314,0.257-0.566,0.57-0.566c0.001,0,0.003,0,0.005,0c0.315,0.002,0.568,0.26,0.565,0.576
							c-0.019,2.342-0.129,4.659-0.328,6.885C713.082,246.868,712.833,247.092,712.541,247.092z M154.879,239.542
							c-0.05,0-0.101-0.006-0.151-0.02c-0.304-0.083-0.483-0.397-0.4-0.701c0.601-2.201,1.192-4.404,1.773-6.61
							c0.08-0.305,0.392-0.488,0.697-0.406c0.305,0.08,0.487,0.393,0.406,0.697c-0.583,2.209-1.174,4.416-1.775,6.62
							C155.36,239.375,155.13,239.542,154.879,239.542z M712.68,233.407c-0.3,0-0.552-0.233-0.569-0.536
							c-0.133-2.185-0.339-4.468-0.614-6.788c-0.037-0.313,0.187-0.597,0.499-0.634c0.309-0.035,0.597,0.187,0.634,0.5
							c0.278,2.341,0.487,4.647,0.62,6.853c0.02,0.315-0.22,0.585-0.535,0.604C712.703,233.406,712.691,233.407,712.68,233.407z
							 M158.37,226.296c-0.047,0-0.094-0.005-0.141-0.018c-0.306-0.078-0.49-0.388-0.413-0.694c0.562-2.211,1.115-4.425,1.658-6.64
							c0.075-0.306,0.384-0.493,0.69-0.418c0.306,0.075,0.494,0.384,0.418,0.69c-0.543,2.219-1.097,4.436-1.66,6.65
							C158.857,226.124,158.625,226.296,158.37,226.296z M711.095,219.806c-0.273,0-0.516-0.198-0.563-0.478
							c-0.357-2.16-0.765-4.356-1.243-6.715c-0.063-0.309,0.137-0.61,0.446-0.673c0.304-0.061,0.61,0.136,0.673,0.446
							c0.48,2.372,0.89,4.581,1.251,6.755c0.051,0.311-0.159,0.605-0.47,0.656C711.158,219.804,711.127,219.806,711.095,219.806z
							 M161.63,212.992c-0.043,0-0.087-0.005-0.132-0.015c-0.307-0.073-0.497-0.38-0.424-0.687c0.524-2.22,1.038-4.443,1.542-6.668
							c0.069-0.308,0.375-0.504,0.683-0.431c0.308,0.07,0.5,0.375,0.431,0.683c-0.505,2.229-1.019,4.455-1.544,6.678
							C162.123,212.815,161.889,212.992,161.63,212.992z M708.382,206.381c-0.259,0-0.493-0.177-0.556-0.439
							c-0.542-2.287-1.116-4.51-1.708-6.608c-0.085-0.303,0.092-0.619,0.396-0.704c0.3-0.087,0.618,0.091,0.704,0.395
							c0.595,2.113,1.174,4.352,1.72,6.654c0.072,0.307-0.117,0.614-0.424,0.687C708.47,206.376,708.425,206.381,708.382,206.381z
							 M164.658,199.632c-0.04,0-0.081-0.004-0.122-0.013c-0.308-0.067-0.503-0.371-0.437-0.679c0.484-2.23,0.959-4.461,1.425-6.694
							c0.064-0.309,0.37-0.506,0.675-0.442c0.309,0.064,0.507,0.367,0.442,0.675c-0.466,2.236-0.942,4.471-1.427,6.704
							C165.157,199.45,164.921,199.632,164.658,199.632z M704.645,193.206c-0.238,0-0.46-0.15-0.54-0.388
							c-0.746-2.198-1.548-4.346-2.384-6.382c-0.119-0.292,0.02-0.625,0.312-0.745c0.295-0.12,0.625,0.02,0.745,0.311
							c0.845,2.058,1.654,4.228,2.408,6.449c0.101,0.298-0.06,0.623-0.357,0.724C704.767,193.197,704.706,193.206,704.645,193.206z
							 M167.452,186.221c-0.037,0-0.074-0.003-0.112-0.011c-0.309-0.062-0.51-0.362-0.448-0.671
							c0.445-2.238,0.881-4.478,1.308-6.719c0.059-0.309,0.358-0.515,0.667-0.454c0.31,0.059,0.513,0.357,0.454,0.667
							c-0.427,2.244-0.864,4.487-1.31,6.728C167.957,186.033,167.718,186.221,167.452,186.221z M699.418,180.555
							c-0.209,0-0.41-0.115-0.511-0.315c-1.034-2.064-2.144-4.064-3.297-5.944c-0.165-0.269-0.081-0.62,0.188-0.785
							c0.271-0.166,0.621-0.081,0.785,0.188c1.171,1.908,2.297,3.937,3.346,6.03c0.141,0.282,0.026,0.625-0.255,0.766
							C699.591,180.535,699.504,180.555,699.418,180.555z M170.012,172.764c-0.034,0-0.068-0.003-0.103-0.009
							c-0.311-0.056-0.516-0.353-0.46-0.663c0.198-1.094,0.394-2.188,0.587-3.283l0.607-3.457c0.055-0.311,0.353-0.518,0.661-0.464
							c0.311,0.054,0.519,0.35,0.464,0.66l-0.608,3.46c-0.194,1.096-0.39,2.192-0.588,3.287
							C170.523,172.571,170.282,172.764,170.012,172.764z M692.242,168.908c-0.172,0-0.343-0.078-0.455-0.227
							c-1.355-1.793-2.822-3.545-4.357-5.208c-0.214-0.231-0.2-0.592,0.031-0.807c0.232-0.213,0.594-0.2,0.807,0.032
							c1.562,1.69,3.052,3.471,4.43,5.294c0.19,0.251,0.141,0.609-0.111,0.799C692.483,168.87,692.362,168.908,692.242,168.908z
							 M549.458,161.967c-0.186,0-0.367-0.09-0.478-0.257c-0.173-0.264-0.1-0.618,0.164-0.791c1.923-1.263,3.878-2.497,5.811-3.666
							c0.271-0.164,0.621-0.076,0.784,0.193c0.163,0.27,0.077,0.621-0.192,0.784c-1.921,1.163-3.864,2.388-5.775,3.644
							C549.674,161.936,549.566,161.967,549.458,161.967z M172.395,159.269c-0.033,0-0.067-0.003-0.101-0.009
							c-0.31-0.056-0.517-0.352-0.461-0.663c0.401-2.247,0.813-4.498,1.244-6.746c0.059-0.31,0.358-0.512,0.668-0.453
							s0.512,0.358,0.453,0.668c-0.43,2.244-0.84,4.49-1.241,6.732C172.907,159.075,172.667,159.269,172.395,159.269z
							 M682.972,158.852c-0.136,0-0.272-0.048-0.381-0.146c-1.666-1.494-3.436-2.941-5.259-4.301
							c-0.252-0.188-0.304-0.546-0.115-0.799c0.188-0.253,0.547-0.302,0.799-0.116c1.85,1.381,3.646,2.85,5.337,4.367
							c0.235,0.21,0.255,0.571,0.044,0.806C683.285,158.788,683.129,158.852,682.972,158.852z M561.18,154.88
							c-0.201,0-0.396-0.106-0.5-0.294c-0.153-0.276-0.053-0.624,0.223-0.776c2.015-1.114,4.06-2.191,6.08-3.203
							c0.281-0.141,0.624-0.028,0.767,0.255c0.141,0.282,0.026,0.625-0.255,0.766c-2.007,1.005-4.039,2.075-6.039,3.182
							C561.368,154.857,561.273,154.88,561.18,154.88z M672.014,150.665c-0.103,0-0.206-0.028-0.3-0.086
							c-1.906-1.183-3.898-2.307-5.921-3.343c-0.281-0.144-0.392-0.487-0.248-0.768s0.489-0.39,0.768-0.248
							c2.051,1.049,4.07,2.189,6.003,3.389c0.268,0.166,0.351,0.518,0.185,0.786C672.392,150.57,672.206,150.665,672.014,150.665z
							 M573.428,148.753c-0.218,0-0.426-0.125-0.521-0.337c-0.129-0.288,0-0.625,0.287-0.754c2.1-0.94,4.231-1.837,6.336-2.666
							c0.293-0.116,0.624,0.029,0.74,0.322c0.115,0.293-0.029,0.625-0.322,0.74c-2.088,0.822-4.204,1.712-6.287,2.645
							C573.586,148.737,573.506,148.753,573.428,148.753z M174.992,145.815c-0.04,0-0.08-0.004-0.12-0.013
							c-0.308-0.066-0.505-0.369-0.439-0.677c0.507-2.376,1.008-4.565,1.531-6.694c0.075-0.306,0.383-0.493,0.69-0.418
							c0.306,0.075,0.493,0.384,0.418,0.69c-0.52,2.117-1.018,4.295-1.523,6.66C175.492,145.632,175.256,145.815,174.992,145.815z
							 M659.842,144.42c-0.073,0-0.147-0.014-0.22-0.044c-2.075-0.866-4.221-1.667-6.375-2.379
							c-0.299-0.099-0.461-0.422-0.362-0.721c0.1-0.299,0.423-0.46,0.722-0.363c2.182,0.722,4.354,1.532,6.455,2.409
							c0.291,0.122,0.429,0.456,0.307,0.747C660.278,144.288,660.066,144.42,659.842,144.42z M586.17,143.743
							c-0.238,0-0.46-0.15-0.541-0.388c-0.101-0.299,0.06-0.623,0.358-0.724c2.181-0.739,4.391-1.425,6.566-2.04
							c0.305-0.089,0.619,0.091,0.704,0.394c0.086,0.304-0.09,0.619-0.394,0.705c-2.157,0.609-4.349,1.29-6.512,2.022
							C586.292,143.734,586.23,143.743,586.17,143.743z M646.852,140.115c-0.046,0-0.093-0.005-0.139-0.017
							c-2.188-0.55-4.429-1.027-6.658-1.419c-0.311-0.054-0.519-0.35-0.464-0.661c0.055-0.312,0.354-0.516,0.661-0.463
							c2.257,0.396,4.523,0.879,6.738,1.436c0.306,0.077,0.492,0.387,0.415,0.693C647.34,139.942,647.108,140.115,646.852,140.115z
							 M599.347,140.03c-0.262,0-0.497-0.18-0.557-0.446c-0.069-0.308,0.124-0.613,0.432-0.682c2.247-0.503,4.519-0.945,6.753-1.313
							c0.308-0.051,0.605,0.159,0.656,0.47c0.051,0.311-0.16,0.605-0.471,0.656c-2.213,0.364-4.463,0.802-6.688,1.301
							C599.43,140.026,599.388,140.03,599.347,140.03z M612.855,137.815c-0.289,0-0.537-0.219-0.566-0.513
							c-0.032-0.313,0.195-0.594,0.509-0.626c2.293-0.235,4.603-0.399,6.866-0.487c0.366-0.009,0.581,0.234,0.593,0.548
							c0.013,0.315-0.233,0.581-0.548,0.593c-2.24,0.087-4.525,0.25-6.794,0.482C612.894,137.814,612.875,137.815,612.855,137.815z
							 M633.371,137.745c-0.02,0-0.039-0.001-0.06-0.003c-2.254-0.231-4.54-0.382-6.793-0.449c-0.315-0.009-0.563-0.272-0.554-0.587
							c0.009-0.315,0.32-0.572,0.587-0.553c2.281,0.068,4.595,0.221,6.877,0.454c0.313,0.032,0.541,0.313,0.509,0.626
							C633.908,137.526,633.66,137.745,633.371,137.745z M501.306,137.293c-0.186,0-0.367-0.09-0.478-0.256
							c-1.238-1.874-2.573-3.734-3.967-5.528c-0.194-0.249-0.149-0.607,0.1-0.801c0.249-0.192,0.607-0.149,0.801,0.101
							c1.412,1.817,2.765,3.7,4.02,5.598c0.174,0.263,0.102,0.617-0.162,0.791C501.523,137.263,501.414,137.293,501.306,137.293z
							 M178.28,132.522c-0.052,0-0.105-0.007-0.159-0.022c-0.303-0.087-0.477-0.404-0.39-0.707c0.657-2.271,1.353-4.477,2.069-6.556
							c0.103-0.297,0.427-0.457,0.726-0.354c0.298,0.103,0.457,0.428,0.354,0.726c-0.71,2.061-1.4,4.248-2.052,6.501
							C178.756,132.359,178.528,132.522,178.28,132.522z M390.164,127.708c-0.112,0-0.225-0.001-0.338-0.005
							c-0.314-0.01-0.562-0.273-0.552-0.589c0.01-0.314,0.247-0.565,0.589-0.552l0.301,0.004c1.969,0,3.942-0.603,5.866-1.791
							c0.27-0.167,0.62-0.082,0.785,0.186c0.166,0.268,0.083,0.62-0.186,0.786C394.523,127.049,392.347,127.708,390.164,127.708z
							 M492.912,126.485c-0.155,0-0.311-0.063-0.424-0.188c-1.509-1.668-3.105-3.31-4.746-4.877
							c-0.228-0.218-0.236-0.579-0.019-0.807c0.218-0.228,0.58-0.236,0.808-0.018c1.66,1.587,3.276,3.248,4.805,4.937
							c0.211,0.234,0.192,0.595-0.041,0.806C493.185,126.436,493.048,126.485,492.912,126.485z M383.669,125.126
							c-0.141,0-0.28-0.051-0.391-0.155c-1.633-1.535-2.876-3.64-3.596-6.087c-0.089-0.303,0.084-0.62,0.387-0.708
							c0.305-0.093,0.62,0.084,0.709,0.386c0.662,2.253,1.797,4.182,3.281,5.578c0.23,0.216,0.241,0.577,0.025,0.807
							C383.972,125.066,383.821,125.126,383.669,125.126z M401.286,121.164c-0.117,0-0.235-0.036-0.337-0.11
							c-0.255-0.186-0.31-0.543-0.124-0.798c0.371-0.506,0.72-1.034,1.036-1.568c0.813-1.371,1.49-2.833,2.015-4.347
							c0.103-0.297,0.428-0.458,0.726-0.353c0.298,0.104,0.456,0.429,0.353,0.727c-0.549,1.585-1.259,3.118-2.11,4.555
							c-0.336,0.566-0.705,1.125-1.098,1.661C401.634,121.083,401.461,121.164,401.286,121.164z M182.764,119.592
							c-0.073,0-0.147-0.014-0.219-0.044c-0.291-0.121-0.429-0.455-0.308-0.746c0.899-2.164,1.866-4.269,2.872-6.258
							c0.143-0.281,0.484-0.395,0.767-0.252c0.282,0.142,0.394,0.485,0.252,0.767c-0.993,1.965-1.947,4.044-2.836,6.182
							C183.2,119.46,182.988,119.592,182.764,119.592z M483.021,117.025c-0.129,0-0.258-0.043-0.364-0.131
							c-1.734-1.438-3.548-2.837-5.391-4.159c-0.256-0.184-0.314-0.541-0.131-0.797c0.184-0.256,0.543-0.313,0.797-0.131
							c1.863,1.338,3.698,2.753,5.453,4.208c0.242,0.201,0.276,0.561,0.075,0.804C483.347,116.955,483.185,117.025,483.021,117.025z
							 M379.728,112.512c-0.026,0-0.053-0.002-0.08-0.005c-0.313-0.044-0.529-0.332-0.486-0.645
							c0.286-2.048,0.938-3.911,1.937-5.537c0.212-0.346,0.435-0.683,0.666-1.011c0.182-0.258,0.537-0.319,0.796-0.138
							c0.257,0.182,0.319,0.538,0.138,0.795c-0.218,0.309-0.427,0.626-0.627,0.952c-0.916,1.491-1.515,3.206-1.778,5.098
							C380.253,112.305,380.008,112.512,379.728,112.512z M471.904,109.04c-0.103,0-0.206-0.028-0.3-0.085
							c-1.918-1.188-3.905-2.328-5.907-3.388c-0.278-0.147-0.385-0.493-0.236-0.771c0.146-0.278,0.49-0.385,0.771-0.237
							c2.023,1.072,4.033,2.225,5.974,3.426c0.268,0.166,0.351,0.518,0.185,0.786C472.282,108.945,472.095,109.04,471.904,109.04z
							 M405.767,108.404c-0.014,0-0.027,0-0.041-0.001c-0.314-0.022-0.552-0.295-0.529-0.61c0.045-0.636,0.068-1.292,0.068-1.952
							c0-1.554-0.129-3.15-0.382-4.743c-0.05-0.311,0.162-0.604,0.474-0.653c0.306-0.052,0.604,0.162,0.653,0.474
							c0.263,1.651,0.396,3.308,0.396,4.922c0,0.686-0.024,1.37-0.071,2.033C406.314,108.175,406.064,108.404,405.767,108.404z
							 M188.959,107.399c-0.103,0-0.206-0.027-0.3-0.085c-0.268-0.166-0.351-0.517-0.185-0.786c1.223-1.979,2.535-3.895,3.898-5.692
							c0.19-0.251,0.549-0.302,0.799-0.11c0.251,0.19,0.3,0.548,0.11,0.799c-1.341,1.769-2.632,3.654-3.836,5.603
							C189.337,107.303,189.151,107.399,188.959,107.399z M459.808,102.633c-0.078,0-0.157-0.016-0.232-0.05
							c-2.065-0.922-4.188-1.786-6.308-2.568c-0.296-0.109-0.447-0.438-0.338-0.733c0.109-0.295,0.439-0.446,0.732-0.338
							c2.145,0.791,4.29,1.665,6.378,2.598c0.288,0.128,0.417,0.466,0.289,0.754C460.235,102.507,460.026,102.633,459.808,102.633z
							 M387.057,101.4c-0.177,0-0.352-0.082-0.463-0.237c-0.185-0.255-0.127-0.612,0.129-0.797c1.759-1.271,3.815-2.396,6.112-3.344
							c0.29-0.12,0.625,0.017,0.745,0.31c0.12,0.291-0.018,0.625-0.31,0.745c-2.214,0.915-4.192,1.997-5.88,3.215
							C387.291,101.365,387.173,101.4,387.057,101.4z M446.964,97.896c-0.053,0-0.107-0.007-0.161-0.023
							c-2.174-0.64-4.393-1.212-6.595-1.701c-0.308-0.068-0.502-0.373-0.434-0.681s0.371-0.503,0.682-0.434
							c2.227,0.494,4.471,1.073,6.669,1.72c0.303,0.089,0.476,0.406,0.387,0.708C447.439,97.735,447.212,97.896,446.964,97.896z
							 M197.236,96.514c-0.14,0-0.28-0.051-0.39-0.154c-0.23-0.215-0.243-0.576-0.027-0.807c1.549-1.658,3.218-3.27,4.962-4.792
							c0.237-0.207,0.599-0.183,0.806,0.055c0.207,0.237,0.183,0.598-0.055,0.806c-1.715,1.497-3.356,3.082-4.879,4.711
							C197.541,96.453,197.388,96.514,197.236,96.514z M399.573,96.034c-0.258,0-0.491-0.175-0.555-0.436
							c-0.074-0.306,0.113-0.615,0.42-0.69c1.13-0.275,2.328-0.529,3.57-0.755c-0.738-1.929-1.65-3.829-2.715-5.655
							c-0.159-0.272-0.066-0.622,0.206-0.781c0.273-0.16,0.622-0.064,0.78,0.206c1.134,1.945,2.1,3.973,2.873,6.031
							c0.688-0.115,1.377-0.222,2.067-0.321c0.309-0.042,0.602,0.172,0.646,0.484c0.044,0.312-0.173,0.601-0.484,0.646
							c-0.875,0.125-1.748,0.264-2.62,0.416c-1.417,0.247-2.78,0.529-4.055,0.84C399.663,96.029,399.617,96.034,399.573,96.034z
							 M433.602,94.932c-0.028,0-0.058-0.002-0.086-0.006c-2.238-0.337-4.514-0.599-6.764-0.778c-0.314-0.025-0.549-0.3-0.524-0.614
							c0.025-0.315,0.318-0.553,0.614-0.523c2.277,0.181,4.58,0.446,6.844,0.787c0.312,0.047,0.526,0.338,0.479,0.649
							C434.123,94.729,433.88,94.932,433.602,94.932z M413.111,94.055c-0.298,0-0.549-0.231-0.568-0.533
							c-0.021-0.314,0.217-0.586,0.531-0.607c2.046-0.136,4.133-0.206,6.202-0.206l0.686,0.002c0.315,0.002,0.569,0.259,0.566,0.575
							c-0.002,0.314-0.257,0.567-0.57,0.567c-0.001,0-0.002,0-0.004,0l-0.678-0.002c-2.044,0-4.105,0.068-6.126,0.203
							C413.137,94.055,413.125,94.055,413.111,94.055z M207.522,87.514c-0.178,0-0.353-0.083-0.464-0.238
							c-0.184-0.256-0.125-0.612,0.13-0.796c1.825-1.312,3.766-2.583,5.768-3.778c0.271-0.163,0.62-0.074,0.783,0.198
							c0.162,0.271,0.073,0.621-0.198,0.783c-1.975,1.178-3.888,2.432-5.687,3.725C207.754,87.479,207.637,87.514,207.522,87.514z
							 M396.848,83.185c-0.162,0-0.324-0.069-0.438-0.204c-1.462-1.743-3.066-3.346-4.769-4.763
							c-0.242-0.202-0.275-0.562-0.073-0.804c0.201-0.243,0.563-0.275,0.804-0.073c1.754,1.461,3.406,3.111,4.913,4.906
							c0.202,0.241,0.171,0.601-0.07,0.804C397.108,83.141,396.978,83.185,396.848,83.185z M219.262,80.484
							c-0.209,0-0.412-0.116-0.511-0.316c-0.141-0.282-0.026-0.625,0.256-0.766c1.997-0.996,4.105-1.959,6.266-2.863
							c0.291-0.123,0.625,0.016,0.747,0.306c0.122,0.291-0.015,0.625-0.306,0.747c-2.137,0.895-4.222,1.847-6.196,2.832
							C219.435,80.465,219.348,80.484,219.262,80.484z M231.888,75.179c-0.235,0-0.456-0.146-0.538-0.381
							c-0.105-0.297,0.051-0.624,0.348-0.728c2.095-0.739,4.296-1.453,6.543-2.123c0.303-0.091,0.62,0.082,0.71,0.384
							c0.09,0.302-0.082,0.62-0.384,0.71c-2.229,0.665-4.413,1.373-6.49,2.105C232.015,75.169,231.951,75.179,231.888,75.179z
							 M386.42,74.4c-0.101,0-0.202-0.027-0.295-0.083c-1.874-1.137-3.893-2.193-6.001-3.138c-0.288-0.129-0.416-0.467-0.287-0.754
							c0.129-0.288,0.47-0.416,0.754-0.288c2.151,0.965,4.213,2.043,6.126,3.205c0.27,0.164,0.355,0.515,0.192,0.784
							C386.801,74.303,386.613,74.4,386.42,74.4z M245.01,71.248c-0.255,0-0.487-0.172-0.553-0.431
							c-0.078-0.306,0.107-0.616,0.413-0.693c2.148-0.543,4.399-1.07,6.689-1.564c0.305-0.068,0.612,0.129,0.679,0.438
							c0.066,0.308-0.129,0.612-0.438,0.679c-2.278,0.492-4.516,1.015-6.65,1.555C245.104,71.243,245.056,71.248,245.01,71.248z
							 M373.969,68.77c-0.059,0-0.119-0.009-0.178-0.028c-2.059-0.676-4.261-1.293-6.546-1.835c-0.307-0.073-0.496-0.38-0.423-0.687
							c0.072-0.307,0.375-0.498,0.687-0.423c2.315,0.549,4.549,1.175,6.638,1.861c0.3,0.099,0.463,0.421,0.365,0.72
							C374.433,68.618,374.21,68.77,373.969,68.77z M258.395,68.346c-0.27,0-0.51-0.192-0.561-0.467
							c-0.058-0.31,0.147-0.608,0.457-0.666c0.611-0.113,1.221-0.224,1.831-0.333c1.64-0.292,3.282-0.572,4.927-0.84
							c0.308-0.05,0.604,0.16,0.655,0.472c0.051,0.311-0.161,0.604-0.472,0.655c-1.639,0.267-3.276,0.546-4.91,0.837
							c-0.607,0.108-1.215,0.219-1.823,0.331C258.464,68.343,258.429,68.346,258.395,68.346z M271.911,66.142
							c-0.279,0-0.523-0.206-0.564-0.49c-0.044-0.313,0.172-0.601,0.484-0.646c2.261-0.321,4.549-0.623,6.802-0.896
							c0.32-0.037,0.598,0.185,0.635,0.498c0.038,0.313-0.185,0.598-0.498,0.635c-2.246,0.272-4.526,0.573-6.779,0.893
							C271.965,66.14,271.938,66.142,271.911,66.142z M360.664,65.572c-0.031,0-0.063-0.002-0.095-0.008
							c-2.143-0.361-4.352-0.675-6.754-0.96c-0.313-0.037-0.537-0.321-0.5-0.634c0.038-0.312,0.319-0.533,0.634-0.5
							c2.42,0.287,4.648,0.604,6.809,0.968c0.311,0.053,0.521,0.347,0.468,0.658C361.179,65.374,360.938,65.572,360.664,65.572z
							 M285.508,64.492c-0.289,0-0.537-0.219-0.567-0.514c-0.032-0.313,0.197-0.593,0.511-0.625
							c2.264-0.228,4.563-0.437,6.833-0.619c0.321-0.036,0.59,0.209,0.615,0.523c0.025,0.314-0.209,0.589-0.523,0.615
							c-2.262,0.182-4.554,0.39-6.81,0.617C285.547,64.491,285.527,64.492,285.508,64.492z M347.066,63.929
							c-0.016,0-0.032,0-0.048-0.002l-1.084-0.088c-1.911-0.151-3.823-0.287-5.735-0.405c-0.315-0.02-0.554-0.291-0.535-0.605
							c0.02-0.315,0.281-0.551,0.605-0.535c1.919,0.12,3.838,0.255,5.755,0.407l1.088,0.088c0.314,0.026,0.548,0.302,0.521,0.616
							C347.609,63.704,347.359,63.929,347.066,63.929z M299.163,63.394c-0.3,0-0.551-0.233-0.569-0.537
							c-0.019-0.314,0.221-0.585,0.536-0.604c2.28-0.137,4.585-0.251,6.852-0.341c0.313-0.029,0.58,0.232,0.593,0.548
							c0.013,0.315-0.233,0.581-0.548,0.593c-2.259,0.089-4.557,0.204-6.829,0.34C299.186,63.394,299.174,63.394,299.163,63.394z
							 M333.394,63.08c-0.008,0-0.016,0-0.024,0c-2.274-0.094-4.574-0.167-6.834-0.214c-0.315-0.007-0.565-0.268-0.559-0.583
							c0.007-0.315,0.256-0.546,0.583-0.559c2.268,0.048,4.575,0.121,6.857,0.215c0.314,0.013,0.56,0.279,0.546,0.594
							C333.951,62.84,333.698,63.08,333.394,63.08z M312.849,62.851c-0.31,0-0.564-0.249-0.57-0.56
							c-0.006-0.315,0.245-0.576,0.56-0.582c2.18-0.042,4.36-0.063,6.54-0.063h0.321c0.315,0,0.571,0.255,0.571,0.571
							s-0.255,0.571-0.571,0.571h-0.321c-2.172,0-4.345,0.021-6.518,0.063C312.857,62.851,312.853,62.851,312.849,62.851z"/>
					</g>
					<g>
						<path style="fill:#FFCA7A;" d="M658.096,136.637h-6.935c-0.513-2.004-1.262-3.913-2.21-5.702l4.797-4.797
							c1.332-1.332,1.332-3.492,0-4.825l-5.274-5.274c-1.332-1.332-3.492-1.332-4.825,0l-4.578,4.578
							c-1.842-1.082-3.827-1.943-5.92-2.549v-6.377c0-1.884-1.527-3.411-3.411-3.411h-7.459c-1.884,0-3.411,1.527-3.411,3.411v6.324
							c-2.117,0.596-4.125,1.452-5.989,2.534l-4.51-4.51c-1.332-1.332-3.492-1.332-4.825,0l-5.274,5.274
							c-1.332,1.332-1.332,3.492,0,4.825l4.673,4.673c-0.979,1.824-1.749,3.775-2.274,5.825h-6.748
							c-1.884,0-3.411,1.527-3.411,3.411v7.459c0,1.884,1.527,3.411,3.411,3.411h7.139c0.593,1.878,1.396,3.663,2.377,5.331
							l-5.167,5.167c-1.332,1.332-1.332,3.492,0,4.825l5.274,5.274c1.332,1.332,3.492,1.332,4.825,0l5.386-5.386
							c1.612,0.854,3.324,1.542,5.113,2.045v7.689c0,1.884,1.527,3.411,3.411,3.411h7.459c1.884,0,3.411-1.527,3.411-3.411v-7.742
							c1.767-0.512,3.458-1.201,5.049-2.055l5.449,5.449c1.332,1.332,3.492,1.332,4.825,0l5.274-5.274
							c1.332-1.332,1.332-3.492,0-4.825l-5.286-5.286c0.949-1.635,1.73-3.379,2.308-5.213h7.326c1.884,0,3.411-1.527,3.411-3.411
							v-7.459C661.508,138.164,659.98,136.637,658.096,136.637z M625.916,164.752c-11.941,0-21.656-9.715-21.656-21.656
							c0-11.941,9.715-21.657,21.656-21.657s21.656,9.715,21.656,21.657C647.572,155.037,637.858,164.752,625.916,164.752z"/>
					</g>
					<g>
						<path style="fill:#FFCA7A;" d="M579.168,329.241h-8.433c-0.624-2.436-1.535-4.758-2.687-6.932l5.833-5.833
							c1.62-1.62,1.62-4.246,0-5.866l-6.413-6.413c-1.62-1.62-4.246-1.62-5.866,0l-5.566,5.566
							c-2.239-1.316-4.653-2.362-7.199-3.099v-7.754c0-2.291-1.857-4.148-4.148-4.148h-9.069c-2.291,0-4.148,1.857-4.148,4.148v7.69
							c-2.575,0.725-5.016,1.766-7.282,3.081l-5.483-5.483c-1.62-1.62-4.246-1.62-5.866,0l-6.413,6.413
							c-1.62,1.62-1.62,4.246,0,5.866l5.682,5.682c-1.19,2.217-2.127,4.591-2.764,7.083h-8.205c-2.291,0-4.148,1.857-4.148,4.148
							v9.069c0,2.291,1.857,4.148,4.148,4.148h8.68c0.72,2.284,1.698,4.453,2.89,6.483l-6.283,6.283c-1.62,1.62-1.62,4.246,0,5.866
							l6.413,6.413c1.62,1.62,4.246,1.62,5.866,0l6.549-6.549c1.96,1.039,4.041,1.875,6.216,2.487v9.349
							c0,2.291,1.857,4.148,4.148,4.148h9.069c2.291,0,4.148-1.857,4.148-4.148v-9.414c2.148-0.622,4.204-1.46,6.139-2.499
							l6.626,6.626c1.62,1.62,4.246,1.62,5.866,0l6.413-6.413c1.62-1.62,1.62-4.246,0-5.866l-6.427-6.427
							c1.154-1.988,2.103-4.108,2.807-6.338h8.908c2.291,0,4.148-1.857,4.148-4.148v-9.069
							C583.316,331.098,581.459,329.241,579.168,329.241z M540.04,363.426c-14.52,0-26.332-11.812-26.332-26.332
							c0-14.52,11.812-26.333,26.332-26.333s26.332,11.813,26.332,26.333C566.372,351.613,554.559,363.426,540.04,363.426z"/>
					</g>
					<g>
						<path style="fill:#FFCA7A;" d="M212.012,217.804h-5.329c-0.394-1.54-0.97-3.006-1.698-4.381l3.686-3.686
							c1.024-1.024,1.024-2.683,0-3.707l-4.052-4.052c-1.024-1.024-2.683-1.024-3.707,0l-3.517,3.517
							c-1.415-0.831-2.94-1.493-4.549-1.958v-4.9c0-1.448-1.174-2.621-2.621-2.621h-5.731c-1.448,0-2.621,1.174-2.621,2.621v4.859
							c-1.627,0.458-3.17,1.116-4.602,1.947l-3.465-3.465c-1.024-1.024-2.683-1.024-3.707,0l-4.052,4.052
							c-1.024,1.024-1.024,2.683,0,3.707l3.591,3.591c-0.752,1.401-1.344,2.901-1.747,4.476h-5.185
							c-1.448,0-2.621,1.174-2.621,2.621v5.731c0,1.448,1.174,2.621,2.621,2.621h5.485c0.455,1.443,1.073,2.814,1.826,4.096
							l-3.97,3.97c-1.024,1.024-1.024,2.683,0,3.707l4.052,4.052c1.024,1.024,2.683,1.024,3.707,0l4.138-4.138
							c1.238,0.656,2.554,1.185,3.928,1.571v5.908c0,1.448,1.174,2.621,2.621,2.621h5.731c1.448,0,2.621-1.174,2.621-2.621v-5.949
							c1.357-0.393,2.657-0.923,3.88-1.579l4.187,4.187c1.024,1.024,2.683,1.024,3.707,0l4.052-4.052
							c1.024-1.024,1.024-2.683,0-3.707l-4.061-4.061c0.729-1.256,1.329-2.596,1.774-4.005h5.629c1.448,0,2.621-1.174,2.621-2.621
							v-5.731C214.634,218.977,213.46,217.804,212.012,217.804z M187.287,239.405c-9.175,0-16.639-7.464-16.639-16.639
							c0-9.175,7.464-16.64,16.639-16.64c9.175,0,16.639,7.465,16.639,16.64C203.926,231.941,196.462,239.405,187.287,239.405z"/>
					</g>
					<g>
						<g>
							<path style="fill:#473632;" d="M522.02,408.888H235.967c-6.832,0-12.371-5.538-12.371-12.371V202.499
								c0-5.589,4.531-10.12,10.12-10.12H524.27c5.589,0,10.12,4.531,10.12,10.12v194.019
								C534.39,403.35,528.852,408.888,522.02,408.888z"/>
						</g>
						<g>
							<rect x="239.054" y="206.505" style="fill:#FFFFFF;" width="279.879" height="188.022"/>
						</g>
						<g>
							<rect x="350.131" y="408.888" style="fill:#2B1F1D;" width="57.725" height="44.363"/>
						</g>
						<g>
							<path style="fill:#473632;" d="M432.595,457.482H325.392v0c0-10.02,8.122-18.142,18.142-18.142h70.919
								C424.472,439.339,432.595,447.462,432.595,457.482L432.595,457.482z"/>
						</g>
					</g>
					<g>
						<g>
							<g>
								<g>
									<path style="fill:#EAE2D3;" d="M498.763,394.527h-239.54V163.321c0-10.644,8.629-19.273,19.273-19.273H479.49
										c10.644,0,19.273,8.629,19.273,19.273V394.527z"/>
								</g>
								<g>
									<path style="fill:#5D9DC1;" d="M498.763,170.801h-239.54V157.28c0-8.976,7.277-16.253,16.253-16.253H482.51
										c8.976,0,16.253,7.277,16.253,16.253V170.801z"/>
								</g>
								<g>
									<g>
										<circle style="fill:#FFFFFF;" cx="282.776" cy="155.914" r="4.704"/>
									</g>
									<g>
										<circle style="fill:#FFFFFF;" cx="296.645" cy="155.914" r="4.704"/>
									</g>
									<g>
										<circle style="fill:#FFFFFF;" cx="309.761" cy="155.914" r="4.704"/>
									</g>
								</g>
							</g>
							<g>
								<g>
									<rect x="278.072" y="192.379" style="fill:#D6C9B6;" width="202.656" height="34.901"/>
								</g>
								<g>
									<rect x="278.072" y="237.635" style="fill:#D6C9B6;" width="92.527" height="140.134"/>
								</g>
								<g>
									<rect x="387.387" y="237.635" style="fill:#D6C9B6;" width="94.479" height="140.134"/>
								</g>
							</g>
						</g>
						<g>
							<g>
								<path style="fill:#F0A146;" d="M443.033,358.914h-128.08c-22.817,0-36.621-25.217-24.325-44.438l64.04-100.107
									c11.357-17.754,37.293-17.754,48.65,0l64.04,100.107C479.654,333.697,465.85,358.914,443.033,358.914z"/>
							</g>
							<g>
								<g>
									<path style="fill:#F84558;" d="M378.993,313.348c-3.118,0-5.645-2.527-5.645-5.646v-78.066
										c0-3.118,2.527-5.645,5.645-5.645c3.117,0,5.646,2.527,5.646,5.645v78.066C384.638,310.821,382.11,313.348,378.993,313.348
										z"/>
								</g>
								<g>
									<circle style="fill:#F84558;" cx="378.993" cy="327.271" r="8.394"/>
								</g>
							</g>
						</g>
					</g>
					<g>
						<g>
							
								<rect x="554.301" y="209.967" transform="matrix(0.9225 -0.3861 0.3861 0.9225 -50.551 234.652)" style="fill:#2B1F1D;" width="9.267" height="66.43"/>
						</g>
						<g>
							<g>
								<circle style="fill:#FFFFFF;" cx="527.56" cy="168.219" r="48.049"/>
							</g>
							<g>
								<path style="fill:#EAE2D3;" d="M509.009,123.895c-8.458,3.54-15.369,9.219-20.373,16.144
									c2.312-1.479,4.772-2.791,7.391-3.887c24.479-10.245,52.629,1.294,62.875,25.773c6.705,16.021,4.077,33.613-5.401,46.73
									c19.298-12.35,27.532-37.127,18.382-58.988C561.639,125.188,533.489,113.649,509.009,123.895z"/>
							</g>
							<g>
								<path style="fill:#F84558;" d="M527.563,222.09c-6.916,0-13.833-1.351-20.425-4.052
									c-13.307-5.455-23.693-15.766-29.246-29.032c-11.462-27.387,1.494-58.993,28.881-70.455
									c13.265-5.551,27.901-5.606,41.209-0.151c13.307,5.455,23.693,15.765,29.246,29.032c5.552,13.267,5.605,27.901,0.151,41.209
									c-5.455,13.307-15.766,23.693-29.032,29.246C541.652,220.688,534.608,222.09,527.563,222.09z M527.558,125.939
									c-5.53,0-11.058,1.1-16.313,3.3c-21.494,8.996-31.662,33.8-22.666,55.294c8.996,21.494,33.802,31.662,55.295,22.666
									c21.494-8.996,31.662-33.801,22.666-55.295c-4.357-10.412-12.509-18.504-22.953-22.785
									C538.415,126.999,532.985,125.939,527.558,125.939z"/>
							</g>
						</g>
						<g>
							<path style="fill:#F0A146;" d="M581.501,297.101L581.501,297.101c-4.465,1.869-9.6-0.236-11.469-4.701l-11.668-27.88
								l16.17-6.768l11.668,27.88C588.071,290.098,585.966,295.233,581.501,297.101z"/>
						</g>
					</g>
					<g>
						<g>
							<path style="fill:#00AC64;" d="M266.409,360.365H165.111v-66.991c0-21.554,17.535-39.088,39.088-39.088h23.122
								c21.553,0,39.088,17.535,39.088,39.088V360.365z M177.309,348.167h76.902v-54.794c0-14.827-12.063-26.891-26.89-26.891
								h-23.122c-14.827,0-26.89,12.063-26.89,26.891V348.167z"/>
						</g>
						<g>
							<g>
								<path style="fill:#F0A146;" d="M214.905,456.468L214.905,456.468c-36.643,0-66.348-29.705-66.348-66.348v-47.437
									c0-4.494,3.643-8.137,8.137-8.137h116.421c4.494,0,8.137,3.643,8.137,8.137v47.437
									C281.253,426.764,251.548,456.468,214.905,456.468z"/>
							</g>
							<g>
								<g>
									<circle style="fill:#EE3724;" cx="214.905" cy="385.427" r="13.126"/>
								</g>
								<g>
									<path style="fill:#EE3724;" d="M214.905,412.396L214.905,412.396c-3.339,0-6.046-2.707-6.046-6.046v-8.91
										c0-3.339,2.707-6.046,6.046-6.046h0c3.339,0,6.046,2.707,6.046,6.046v8.91
										C220.951,409.689,218.244,412.396,214.905,412.396z"/>
								</g>
							</g>
						</g>
					</g>
					<g>
						<g>
							<g>
								<path style="fill:#F4AB7A;" d="M612.184,266.577c-7.397-3.272-14.867-6.586-21.326-11.453
									c-6.459-4.868-11.912-11.503-13.81-19.365c-1.544-6.393-0.653-13.133,0.944-19.512c1.429-5.71,3.418-11.279,5.93-16.602
									c1.227-2.6,2.616-5.384,2.094-8.211c-0.708-3.833-4.763-6.647-5.153-10.384c-0.061-0.586,0.588-1.011,1.098-0.714
									c0.673,0.391,1.197,1.245,1.501,2.02c0.456,1.164,1.098,2.581,2.348,2.638c-1.651-2.611-2.722-5.586-3.114-8.65
									c-0.102-0.795,0.365-1.984,1.074-1.609c0.233,0.123,0.348,0.387,0.447,0.631c1.073,2.655,2.146,5.31,3.219,7.966
									c-0.004-2.326-0.092-7.038-0.096-9.364c-0.001-0.668,0.318-1.603,0.961-1.424c0.374,0.104,0.52,0.546,0.607,0.923
									c0.598,2.569,0.659,7.429,1.256,9.998c0.312-2.238,1.246-4.382,1.557-6.62c0.126-0.904,0.895-2.11,1.618-1.553
									c0.313,0.241,0.344,0.692,0.344,1.087c-0.003,3.368-0.382,6.735-1.128,10.02c-0.077,0.34-0.15,0.727,0.052,1.011
									c0.356,0.501,1.182,0.199,1.552-0.292c0.675-0.897,0.671-2.152,1.271-3.1c0.385-0.608,1.35-0.971,2.031-0.685
									c0.895,0.377,0.765,1.313,0.563,2.091c-0.534,2.064-2.217,3.631-3.529,5.224c-5.105,6.204-6.08,14.69-7.625,22.575
									c-1.081,5.516-2.539,11.209-1.218,16.673c1.561,6.458,6.867,11.5,12.867,14.352c6,2.852,12.693,3.835,19.279,4.707
									L612.184,266.577z"/>
							</g>
							<g>
								<path style="fill:#997075;" d="M627.912,245.444c0,0-24.329-1.714-33.075-5.849c0,0-7.374,10.612-6.688,20.729l23.15,13.204
									L627.912,245.444z"/>
							</g>
						</g>
						<g>
							<path style="fill:#473632;" d="M626.31,455.361c-0.489,0.766-1.427,1.094-2.307,1.323c-4.318,1.12-8.936,1.06-13.224-0.172
								c-0.52-0.15-1.161-0.539-0.99-1.053c0.093-0.278,0.393-0.421,0.665-0.528c1.127-0.446,2.286-0.812,3.465-1.095
								c0.823-0.197,1.661-0.355,2.445-0.675c1.731-0.708,3.091-2.165,4.86-2.771c1.295-0.443,2.75-0.361,4.005,0.174
								c0.433,0.185,1.118,0.466,1.387,0.883c0.281,0.434,0.084,1.18,0.086,1.668C626.706,453.876,626.736,454.694,626.31,455.361z"
								/>
						</g>
						<g>
							<path style="fill:#473632;" d="M693.725,432.829c0.33,0.846,0.042,1.798-0.293,2.643c-1.643,4.147-4.415,7.841-7.938,10.577
								c-0.428,0.332-1.12,0.62-1.434,0.179c-0.17-0.239-0.108-0.565-0.035-0.849c0.305-1.173,0.693-2.325,1.16-3.444
								c0.326-0.781,0.693-1.551,0.897-2.372c0.449-1.815,0.075-3.773,0.629-5.559c0.406-1.307,1.33-2.434,2.503-3.131
								c0.405-0.241,1.036-0.627,1.531-0.599c0.516,0.029,1.002,0.628,1.398,0.914C692.76,431.633,693.437,432.092,693.725,432.829z
								"/>
						</g>
						<g>
							<path style="fill:#5D9DC1;" d="M635.313,318.851c1.043,16.151-1.687,27.637,0.874,43.569
								c0.94,5.848,5.88,16.422,8.184,21.761c2.828,6.555,7.248,12.026,11.655,17.343c10.318,12.446,18.794,24.99,29.646,36.837
								c1.445-3.291,5.714-6.975,7.516-10.031c-5.62-10.094-11.892-21.771-17.512-31.865c-3.824-6.868-7.81-13.931-13.72-18.518
								c0.911-0.515,0.333-3.586-0.085-4.639c-0.419-1.053-1.623-1.599-2.566-1.164c-0.208-0.381-0.416-0.762-0.624-1.142
								c-8.259-15.113-1.681-35.442-2.836-53.174c-0.224-3.441-0.719-7.394-3.3-9.22c-1.033-0.731-2.271-0.998-3.487-1.062
								c-7.099-0.374-13.821,6.768-13.955,14.827C635.967,320.542,635.542,320.912,635.313,318.851z"/>
						</g>
						<g>
							<path style="fill:#5D9DC1;" d="M612.695,318.58c2.742,43.926,4.145,87.96,4.206,131.997
								c3.733,2.042,7.415,1.937,11.461,0.915c6.146-41.337,7.291-84.085,8.083-125.996c0.131-6.952-0.316-15.194-5.517-18.876
								c-3.506-2.482-8.259-1.843-11.729,0.702c-3.471,2.546-5.81,6.693-7.38,11.029
								C611.612,315.668,612.901,321.263,612.695,318.58z"/>
						</g>
						<g>
							<path style="fill:#997075;" d="M604.698,263.669c-2.494,5.928-3.496,12.697-3.276,19.416
								c0.301,9.226,5.052,40.171,5.052,40.171l54.873-6.688c0,0-0.787-32.035-1.239-39.731c-0.425-7.246-0.952-14.813-4.937-20.916
								c-4.843-7.418-14.526-11.481-23.97-10.802C617.294,246.119,608.889,253.708,604.698,263.669z"/>
						</g>
						<g>
							<g>
								<path style="fill:#473632;" d="M622.33,221.315c-1.317,0.275-2.473-0.89-3.206-2.019c-2.634-4.057-3.565-9.182-2.528-13.906
									c0.44-2.005,1.28-4.018,2.87-5.315c2.621-2.139,6.783-1.655,9.302,0.602c2.519,2.258,3.509,5.879,3.191,9.247
									c-0.154-1.454,0.029-2.934,1.394-3.458c0.948-0.365,2.059,0.207,2.601,1.067c0.541,0.859,0.631,1.924,0.614,2.939
									c-0.018,1.057-0.139,2.127-0.53,3.109c0.779-1.275,3.142-0.517,3.706,0.867c0.564,1.384-0.025,2.965-0.791,4.248
									c1.236-0.302,2.644,0.401,3.545,1.3s1.291,2.279,0.993,3.516c-0.264,1.093-1.012,2.036-1.194,3.146
									c-0.31,1.895,1.094,3.751,0.818,5.651c-0.395,2.712-3.705,3.763-5.541,5.797c-0.731,0.81-1.321,1.869-2.363,2.194
									c-0.971,0.303-2.026-0.154-2.823-0.785c-3.056-2.421-3.418-6.824-4.931-10.417
									C626.052,225.764,624.771,223.984,622.33,221.315z"/>
							</g>
							<g>
								<g>
									<g>
										<path style="fill:#F4AB7A;" d="M619.104,226.307c-0.69,6.347,2.335,11.745,7.223,13.071s9.837-3.619,11.511-9.788
											s-1.894-11.587-6.782-12.913C626.168,215.351,619.845,219.496,619.104,226.307z"/>
									</g>
									<g>
										<path style="fill:#F4AB7A;" d="M636.5,231.199c-0.998,1.784-2.106,3.525-0.841,4.233s4.425,0.115,5.423-1.669
											c0.998-1.784,0.781-3.803-0.484-4.511S637.498,229.415,636.5,231.199z"/>
									</g>
									<g>
										<path style="fill:#E28C52;" d="M636.884,231.574c-0.611,1.091-1.289,2.157-0.515,2.59c0.774,0.433,2.707,0.07,3.318-1.021
											c0.611-1.091,0.478-2.327-0.296-2.76C638.617,229.95,637.494,230.483,636.884,231.574z"/>
									</g>
								</g>
								<g>
									<path style="fill:#F4AB7A;" d="M635.259,235.072l-1.943,11.183c0,0-2.863,1.274-5.796,1.071
										c-1.028-0.071-1.734-1.067-1.447-2.058l2.537-8.756L635.259,235.072z"/>
								</g>
								<g>
									<path style="fill:#E28C52;" d="M627.719,239.59c0,0,5.049-0.494,7.141-4.124c0,0-0.812,4.761-8.04,7.228L627.719,239.59z"
										/>
								</g>
							</g>
						</g>
						<g>
							<polygon style="fill:#3881A0;" points="635.664,358.603 629.885,326.686 626.01,323.499 634.924,378.38 							"/>
						</g>
						<g>
							<g>
								<path style="fill:#F4AB7A;" d="M651.242,266.577c7.397-3.272,14.867-6.586,21.326-11.453
									c6.459-4.868,11.912-11.503,13.81-19.365c1.544-6.393,0.653-13.133-0.944-19.512c-1.429-5.71-3.418-11.279-5.93-16.602
									c-1.227-2.6-2.616-5.384-2.094-8.211c0.708-3.833,4.763-6.647,5.153-10.384c0.061-0.586-0.588-1.011-1.098-0.714
									c-0.673,0.391-1.198,1.245-1.501,2.02c-0.456,1.164-1.098,2.581-2.348,2.638c1.651-2.611,2.722-5.586,3.114-8.65
									c0.102-0.795-0.365-1.984-1.074-1.609c-0.233,0.123-0.348,0.387-0.447,0.631c-1.073,2.655-2.146,5.31-3.219,7.966
									c0.004-2.326,0.092-7.038,0.096-9.364c0.001-0.668-0.318-1.603-0.961-1.424c-0.374,0.104-0.519,0.546-0.607,0.923
									c-0.598,2.569-0.658,7.429-1.256,9.998c-0.312-2.238-1.245-4.382-1.557-6.62c-0.126-0.904-0.895-2.11-1.618-1.553
									c-0.313,0.241-0.344,0.692-0.344,1.087c0.003,3.368,0.382,6.735,1.128,10.02c0.077,0.34,0.15,0.727-0.052,1.011
									c-0.356,0.501-1.182,0.199-1.552-0.292c-0.675-0.897-0.671-2.152-1.271-3.1c-0.385-0.608-1.35-0.971-2.031-0.685
									c-0.895,0.377-0.765,1.313-0.563,2.091c0.534,2.064,2.217,3.631,3.529,5.224c5.105,6.204,6.079,14.69,7.625,22.575
									c1.081,5.516,2.539,11.209,1.218,16.673c-1.561,6.458-6.867,11.5-12.867,14.352c-6,2.852-12.693,3.835-19.279,4.707
									L651.242,266.577z"/>
							</g>
							<g>
								<path style="fill:#997075;" d="M635.514,245.444c0,0,24.329-1.714,33.075-5.849c0,0,7.374,10.612,6.688,20.729
									l-23.15,13.204L635.514,245.444z"/>
							</g>
						</g>
					</g>
					<g>
						<g>
							<g>
								<path style="fill:#F4AB7A;" d="M119.691,265.96c6.469-2.861,13.002-5.76,18.652-10.017s10.418-10.06,12.078-16.936
									c1.35-5.591,0.571-11.486-0.825-17.065c-1.25-4.994-2.99-9.864-5.186-14.52c-1.073-2.274-2.288-4.709-1.832-7.181
									c0.619-3.352,4.165-5.813,4.506-9.081c0.053-0.513-0.514-0.884-0.96-0.625c-0.589,0.342-1.047,1.089-1.313,1.766
									c-0.399,1.018-0.961,2.257-2.053,2.307c1.444-2.283,2.381-4.885,2.724-7.565c0.089-0.695-0.32-1.735-0.939-1.407
									c-0.204,0.108-0.305,0.338-0.391,0.552c-0.938,2.322-1.877,4.644-2.815,6.967c0.003-2.035,0.081-6.155,0.084-8.19
									c0.001-0.585-0.278-1.402-0.841-1.245c-0.327,0.091-0.454,0.477-0.531,0.808c-0.523,2.247-0.576,6.497-1.099,8.744
									c-0.273-1.958-1.089-3.832-1.362-5.79c-0.11-0.79-0.783-1.845-1.415-1.359c-0.273,0.21-0.301,0.605-0.301,0.95
									c0.002,2.945,0.334,5.891,0.986,8.763c0.067,0.297,0.131,0.636-0.045,0.884c-0.311,0.438-1.034,0.174-1.357-0.255
									c-0.59-0.784-0.587-1.882-1.111-2.711c-0.336-0.532-1.181-0.849-1.776-0.599c-0.783,0.33-0.669,1.148-0.493,1.829
									c0.467,1.805,1.939,3.175,3.086,4.569c4.465,5.426,5.317,12.848,6.669,19.744c0.946,4.824,2.22,9.803,1.065,14.582
									c-1.365,5.648-6.005,10.057-11.253,12.552c-5.247,2.495-11.101,3.354-16.861,4.117L119.691,265.96z"/>
							</g>
						</g>
						<g>
							<g>
								<path style="fill:#473632;" d="M108.697,455.277c0.508,0.796,1.484,1.138,2.398,1.375c4.489,1.164,9.289,1.102,13.746-0.178
									c0.541-0.155,1.207-0.56,1.029-1.094c-0.096-0.289-0.408-0.437-0.691-0.549c-1.172-0.464-2.376-0.844-3.602-1.138
									c-0.856-0.205-1.727-0.369-2.541-0.702c-1.799-0.736-3.213-2.251-5.052-2.88c-1.346-0.461-2.859-0.376-4.163,0.181
									c-0.45,0.192-1.162,0.485-1.442,0.918c-0.292,0.451-0.087,1.227-0.089,1.734
									C108.285,453.733,108.255,454.583,108.697,455.277z"/>
							</g>
							<g>
								<path style="fill:#473632;" d="M75.404,454.637c0.508,0.796,1.484,1.138,2.398,1.375c4.489,1.164,9.289,1.102,13.746-0.178
									c0.541-0.155,1.207-0.56,1.029-1.094c-0.096-0.289-0.408-0.437-0.691-0.549c-1.172-0.464-2.376-0.844-3.602-1.138
									c-0.856-0.205-1.727-0.369-2.541-0.702c-1.799-0.736-3.213-2.251-5.052-2.88c-1.346-0.461-2.859-0.376-4.163,0.181
									c-0.45,0.192-1.162,0.485-1.442,0.918c-0.292,0.451-0.087,1.227-0.089,1.734C74.991,453.093,74.961,453.943,75.404,454.637z
									"/>
							</g>
							<g>
								<path style="fill:#997075;" d="M91.236,300.967c-5.717,49.499-11.434,98.998-17.152,148.497
									c3.307,1.736,7.558,3.103,11.158,2.621c11.931-44.309,20.848-89.931,29.72-135.214c1.335-6.814,2.495-14.673-1.147-20.214
									C109.33,289.831,92.221,292.432,91.236,300.967z"/>
							</g>
							<g>
								<path style="fill:#997075;" d="M103.323,302.08c1.224,49.813,2.449,99.626,3.673,149.439
									c3.516,1.259,7.916,2.022,11.414,1.043c5.651-45.538,8.135-91.957,10.621-138.034c0.374-6.934,0.429-14.878-3.948-19.858
									C119.692,288.535,103.112,293.491,103.323,302.08z"/>
							</g>
							<g>
								<polygon style="fill:#724C52;" points="104.926,367.285 113.922,325.118 118.582,323.079 105.336,383.965 								"/>
							</g>
						</g>
						<g>
							<g>
								<path style="fill:#473632;" d="M92.501,211.279c-9.849-1.884-20.037,9.108-16.853,18.804
									c1.539,4.762,6.616,9.625,4.119,14.877c-1.387,2.701-4.66,3.818-6.681,6.084c-6.464,7.954,3.406,18.153,12.203,14.312
									c11.82-5.643,9.286-16.828,5.544-26.823C91.336,229.77,106.492,216.718,92.501,211.279z"/>
							</g>
							<g>
								<path style="fill:#FFCA7A;" d="M94.202,216.324c-6.5,3.504-7.525,13.274-1.556,17.807
									c2.138-5.308,4.276-10.616,6.414-15.925C100.82,215.155,95.846,214.993,94.202,216.324z"/>
							</g>
							<g>
								<path style="fill:#473632;" d="M113.642,228.997c5.854-1.314,8.47-10.443,1.964-12.557
									c-6.395,0.671-16.702-4.113-20.223,3.366c-7.391,1.59-5.55,10.619-2.245,15.36c1.148,2.113,2.673,4.485,5.069,4.693
									C103.461,239.826,105.93,230.753,113.642,228.997z"/>
							</g>
							<g>
								<path style="fill:#FFCA7A;" d="M134.093,312.739c-2.51-7.238-11.009-34.734-10.427-42.44
									c0.268-3.556,3.159-7.822,1.703-11.059c-4.684-7.051-11.762-15.56-21.241-14.74c-7.927,1.628-16.475,8.66-18.941,16.099
									c-0.757,3.246,0.137,6.496,0.833,9.673c2.044,9.323,0.258,34.833-1.122,44.434
									C98.329,316.095,122.182,319.622,134.093,312.739z"/>
							</g>
							<g>
								<g>
									<g>
										<path style="fill:#F4AB7A;" d="M114.781,230.435c-0.894,13.597-15.802,14.383-17.218,0.278
											C96.498,217.196,114.967,216.557,114.781,230.435z"/>
									</g>
									<g>
										<path style="fill:#F4AB7A;" d="M98.532,232.342c2.813,5.326-2.525,4.944-4.461,1.643
											c-0.639-1.737-0.159-3.512,1.073-3.966S97.892,230.606,98.532,232.342z"/>
									</g>
									<g>
										<path style="fill:#E28C52;" d="M98.135,232.624c1.735,3.107-1.553,3.092-2.73,1.005
											C94.461,231.14,97.24,230.117,98.135,232.624z"/>
									</g>
								</g>
								<g>
									<path style="fill:#F4AB7A;" d="M99.092,235.982l0.151,10.276c9.49,5.182,6.002-1.829,5.59-8.044L99.092,235.982z"/>
								</g>
								<g>
									<path style="fill:#E28C52;" d="M105.193,241.091c0,0-4.445-1.158-5.8-4.701c0,0,0.051,4.373,6.164,7.604L105.193,241.091z"
										/>
								</g>
							</g>
						</g>
						<g>
							<g>
								<path style="fill:#F4AB7A;" d="M88.879,265.96c-6.469-2.861-13.002-5.76-18.652-10.017
									c-5.649-4.257-10.418-10.06-12.078-16.936c-1.35-5.591-0.571-11.486,0.825-17.065c1.25-4.994,2.99-9.864,5.186-14.52
									c1.073-2.274,2.288-4.709,1.832-7.181c-0.619-3.352-4.165-5.813-4.506-9.081c-0.053-0.513,0.514-0.884,0.96-0.625
									c0.589,0.342,1.047,1.089,1.313,1.766c0.399,1.018,0.961,2.257,2.053,2.307c-1.444-2.283-2.381-4.885-2.724-7.565
									c-0.089-0.695,0.32-1.735,0.939-1.407c0.204,0.108,0.305,0.338,0.391,0.552c0.938,2.322,1.877,4.644,2.815,6.967
									c-0.003-2.035-0.081-6.155-0.084-8.19c-0.001-0.585,0.278-1.402,0.841-1.245c0.327,0.091,0.454,0.477,0.531,0.808
									c0.523,2.247,0.576,6.497,1.099,8.744c0.273-1.958,1.089-3.832,1.362-5.79c0.11-0.79,0.783-1.845,1.415-1.359
									c0.273,0.21,0.301,0.605,0.301,0.95c-0.002,2.945-0.334,5.891-0.986,8.763c-0.067,0.297-0.131,0.636,0.045,0.884
									c0.311,0.438,1.034,0.174,1.357-0.255c0.59-0.784,0.587-1.882,1.111-2.711c0.336-0.532,1.181-0.849,1.776-0.599
									c0.783,0.33,0.669,1.148,0.493,1.829c-0.467,1.805-1.939,3.175-3.086,4.569c-4.465,5.426-5.317,12.848-6.669,19.744
									c-0.946,4.824-2.22,9.803-1.065,14.582c1.365,5.648,6.005,10.057,11.253,12.552c5.247,2.495,11.101,3.354,16.861,4.117
									L88.879,265.96z"/>
							</g>
						</g>
						<g>
							<path style="fill:#FFCA7A;" d="M114.783,247.6c0,0,9.939-0.178,14.406-2.253c0,0,5.026,12.779,3.763,15.51l-8.983,3.604
								L114.783,247.6z"/>
						</g>
						<g>
							<path style="fill:#FFCA7A;" d="M97.519,247.003c0,0-7.991,1.438-14.217,0c0,0-6.663,9.157-6.99,14.618l13.936,7.318
								l6.673-8.957L97.519,247.003z"/>
						</g>
					</g>
					<g>
						<g>
							<circle style="fill:#00AC64;" cx="534.39" cy="404.451" r="51.43"/>
						</g>
						<g>
							<path style="fill:#FFFFFF;" d="M529.557,429.093c-2.991,0-5.909-1.123-8.128-3.156l-20.566-18.836
								c-2.648-2.426-2.829-6.54-0.403-9.188c2.428-2.647,6.539-2.827,9.188-0.403l19.784,18.121l28.986-36.754
								c2.225-2.82,6.313-3.302,9.134-1.079c2.819,2.225,3.303,6.313,1.079,9.134l-29.644,37.587
								c-2.064,2.615-5.151,4.269-8.472,4.537C530.196,429.08,529.877,429.093,529.557,429.093z"/>
						</g>
					</g>
					<g>
						<g>
							<g>
								<path style="fill:#FFCA7A;" d="M225.009,142.677h-99.614c-7.398,0-13.396-5.998-13.396-13.396v0
									c0-7.398,5.998-13.396,13.396-13.396h99.614c7.398,0,13.396,5.998,13.396,13.396v0
									C238.406,136.679,232.408,142.677,225.009,142.677z"/>
							</g>
							<g>
								<g>
									<circle style="fill:#FFFFFF;" cx="130.475" cy="129.281" r="5.29"/>
									<path style="fill:#473632;" d="M130.475,135.631c-3.501,0-6.35-2.849-6.35-6.35c0-3.501,2.848-6.35,6.35-6.35
										s6.35,2.848,6.35,6.35C136.825,132.782,133.976,135.631,130.475,135.631z M130.475,125.051
										c-2.332,0-4.229,1.897-4.229,4.229c0,2.333,1.897,4.23,4.229,4.23c2.333,0,4.23-1.897,4.23-4.23
										C134.705,126.949,132.807,125.051,130.475,125.051z"/>
								</g>
								<g>
									<g>
										<path style="fill:#473632;" d="M223.1,125.051h-24.894c-0.585,0-1.06-0.475-1.06-1.06s0.475-1.06,1.06-1.06H223.1
											c0.585,0,1.06,0.475,1.06,1.06S223.685,125.051,223.1,125.051z"/>
									</g>
									<g>
										<path style="fill:#473632;" d="M223.1,130.341h-24.894c-0.585,0-1.06-0.475-1.06-1.06s0.475-1.06,1.06-1.06H223.1
											c0.585,0,1.06,0.475,1.06,1.06S223.685,130.341,223.1,130.341z"/>
									</g>
									<g>
										<path style="fill:#473632;" d="M223.1,135.631h-24.894c-0.585,0-1.06-0.475-1.06-1.06s0.475-1.06,1.06-1.06H223.1
											c0.585,0,1.06,0.475,1.06,1.06S223.685,135.631,223.1,135.631z"/>
									</g>
								</g>
							</g>
						</g>
						<g>
							<g>
								<path style="fill:#FFCA7A;" d="M225.009,175.955h-99.614c-7.398,0-13.396-5.998-13.396-13.396v0
									c0-7.398,5.998-13.396,13.396-13.396h99.614c7.398,0,13.396,5.998,13.396,13.396v0
									C238.406,169.958,232.408,175.955,225.009,175.955z"/>
							</g>
							<g>
								<g>
									<circle style="fill:#FFFFFF;" cx="130.475" cy="162.559" r="5.29"/>
									<path style="fill:#473632;" d="M130.475,168.909c-3.501,0-6.35-2.849-6.35-6.35s2.848-6.35,6.35-6.35s6.35,2.849,6.35,6.35
										S133.976,168.909,130.475,168.909z M130.475,158.329c-2.332,0-4.229,1.897-4.229,4.23s1.897,4.23,4.229,4.23
										c2.333,0,4.23-1.897,4.23-4.23S132.807,158.329,130.475,158.329z"/>
								</g>
								<g>
									<g>
										<path style="fill:#473632;" d="M223.1,158.329h-24.894c-0.585,0-1.06-0.475-1.06-1.06s0.475-1.06,1.06-1.06H223.1
											c0.585,0,1.06,0.475,1.06,1.06S223.685,158.329,223.1,158.329z"/>
									</g>
									<g>
										<path style="fill:#473632;" d="M223.1,163.619h-24.894c-0.585,0-1.06-0.475-1.06-1.06s0.475-1.06,1.06-1.06H223.1
											c0.585,0,1.06,0.475,1.06,1.06S223.685,163.619,223.1,163.619z"/>
									</g>
									<g>
										<path style="fill:#473632;" d="M223.1,168.909h-24.894c-0.585,0-1.06-0.475-1.06-1.06s0.475-1.06,1.06-1.06H223.1
											c0.585,0,1.06,0.475,1.06,1.06S223.685,168.909,223.1,168.909z"/>
									</g>
								</g>
							</g>
						</g>
					</g>
				</g>
				<g>
					<g>
						<path style="fill:#FFCA7A;" d="M320.038,447.469c-0.946,0-1.893-0.361-2.615-1.083l-20.554-20.554
							c-1.444-1.444-1.444-3.786,0-5.23c1.444-1.443,3.786-1.443,5.23,0l20.554,20.554c1.444,1.444,1.444,3.786,0,5.23
							C321.931,447.108,320.984,447.469,320.038,447.469z"/>
					</g>
					<g>
						<path style="fill:#FFCA7A;" d="M299.484,447.469c-0.947,0-1.893-0.361-2.615-1.083c-1.444-1.444-1.444-3.786,0-5.23
							l20.554-20.554c1.445-1.443,3.787-1.443,5.23,0c1.444,1.444,1.444,3.786,0,5.23l-20.554,20.554
							C301.377,447.108,300.43,447.469,299.484,447.469z"/>
					</g>
				</g>
				<g>
					<g>
						<path style="fill:#FFCA7A;" d="M329.768,128.352c-1.41,0-2.819-0.538-3.894-1.613l-30.606-30.606
							c-2.151-2.151-2.151-5.638,0-7.788c2.151-2.151,5.638-2.151,7.788,0l30.606,30.606c2.151,2.151,2.151,5.638,0,7.788
							C332.587,127.814,331.177,128.352,329.768,128.352z"/>
					</g>
					<g>
						<path style="fill:#FFCA7A;" d="M299.162,128.352c-1.409,0-2.819-0.538-3.894-1.613c-2.151-2.15-2.151-5.637,0-7.788
							l30.606-30.606c2.15-2.15,5.638-2.151,7.788,0c2.151,2.15,2.151,5.637,0,7.788l-30.606,30.606
							C301.981,127.814,300.571,128.352,299.162,128.352z"/>
					</g>
				</g>
				<g>
					<g>
						<path style="fill:#FFFFFF;" d="M466.031,244.607c-0.946,0-1.893-0.361-2.615-1.083l-20.554-20.554
							c-1.444-1.444-1.444-3.786,0-5.23c1.445-1.444,3.785-1.444,5.23,0l20.554,20.554c1.444,1.444,1.444,3.786,0,5.23
							C467.923,244.246,466.977,244.607,466.031,244.607z"/>
					</g>
					<g>
						<path style="fill:#FFFFFF;" d="M445.477,244.607c-0.946,0-1.893-0.361-2.615-1.083c-1.444-1.444-1.444-3.786,0-5.23
							l20.554-20.554c1.445-1.444,3.785-1.444,5.23,0c1.444,1.444,1.444,3.786,0,5.23l-20.554,20.554
							C447.37,244.246,446.423,244.607,445.477,244.607z"/>
					</g>
				</g>
				<g>
					<path style="fill:#00AC64;" d="M675.585,293.644c-5.234,0-9.493-4.259-9.493-9.493s4.259-9.493,9.493-9.493
						c5.233,0,9.492,4.259,9.492,9.493S680.818,293.644,675.585,293.644z M675.585,276.909c-3.993,0-7.241,3.248-7.241,7.241
						s3.248,7.241,7.241,7.241c3.992,0,7.24-3.248,7.24-7.241S679.577,276.909,675.585,276.909z"/>
				</g>
				<g>
					<path style="fill:#00AC64;" d="M424.228,130.918c-5.234,0-9.493-4.258-9.493-9.493s4.259-9.493,9.493-9.493
						c5.233,0,9.492,4.258,9.492,9.493S429.462,130.918,424.228,130.918z M424.228,114.184c-3.993,0-7.241,3.249-7.241,7.242
						s3.248,7.242,7.241,7.242c3.992,0,7.24-3.249,7.24-7.242S428.22,114.184,424.228,114.184z"/>
				</g>
				<g>
					<path style="fill:#00AC64;" d="M57.449,287.027c-5.234,0-9.493-4.259-9.493-9.492c0-5.234,4.258-9.493,9.493-9.493
						s9.493,4.259,9.493,9.493C66.942,282.768,62.683,287.027,57.449,287.027z M57.449,270.293c-3.993,0-7.242,3.248-7.242,7.241
						c0,3.992,3.249,7.24,7.242,7.24s7.242-3.248,7.242-7.24C64.691,273.541,61.442,270.293,57.449,270.293z"/>
				</g>
				<g>
					<path style="fill:#00AC64;" d="M236.157,103.87c-5.234,0-9.493-4.258-9.493-9.492c0-5.234,4.258-9.493,9.493-9.493
						s9.493,4.258,9.493,9.493C245.65,99.612,241.391,103.87,236.157,103.87z M236.157,87.136c-3.993,0-7.242,3.249-7.242,7.242
						c0,3.993,3.249,7.241,7.242,7.241s7.242-3.249,7.242-7.241C243.399,90.385,240.15,87.136,236.157,87.136z"/>
				</g>
				<g>
					<path style="fill:#473632;" d="M712.87,457.902H49.082c-0.585,0-1.06-0.475-1.06-1.061s0.475-1.061,1.06-1.061H712.87
						c0.586,0,1.061,0.475,1.061,1.061S713.456,457.902,712.87,457.902z"/>
				</g>
			</g>
		</g>
	</g>
</g>
</svg>
